<?xml version="1.0" encoding="UTF-8" standalone="no"?>
<svg width="91px" height="91px" viewBox="0 0 91 91" version="1.1" xmlns="http://www.w3.org/2000/svg" xmlns:xlink="http://www.w3.org/1999/xlink">
    <!-- Generator: Sketch 3.8.3 (29802) - http://www.bohemiancoding.com/sketch -->
    <title>Group 3</title>
    <desc>Created with Sketch.</desc>
    <defs></defs>
    <g id="Page-1" stroke="none" stroke-width="1" fill="none" fill-rule="evenodd">
        <g id="-" transform="translate(-455.000000, -267.000000)">
            <g id="Group-3" transform="translate(455.000000, 267.000000)">
                <circle id="Oval-1" fill="#DBE9F4" cx="45.5" cy="45.5" r="45.5"></circle>
                <path d="M33.3592263,75.76636 C33.3256496,75.76636 33.2924088,75.7643371 33.2591679,75.7602914 C33.2584964,75.7606286 33.2578248,75.7599543 33.2568175,75.7599543 C33.2558102,75.7596171 33.2551387,75.75928 33.2544672,75.7596171 C33.2534599,75.7596171 33.2524526,75.7596171 33.2524526,75.75928 C33.2514453,75.75928 33.2507737,75.7589429 33.2501022,75.7589429 C33.2151825,75.75456 33.1809343,75.7478171 33.1470219,75.7387143 C33.1466861,75.7387143 33.1466861,75.7383771 33.1453431,75.7383771 C33.0033139,75.7009543 32.8710219,75.6261086 32.7629051,75.5172114 C32.7625693,75.5165371 32.7622336,75.5158629 32.7612263,75.5151886 C32.7605547,75.5145143 32.7598832,75.51384 32.7595474,75.5131657 C32.7588759,75.5124914 32.7582044,75.5118171 32.7575328,75.5111429 L21.2652555,63.6632686 C21.2649197,63.6625943 21.2642482,63.6622571 21.2635766,63.6615829 C21.2635766,63.6615829 21.2635766,63.6612457 21.2632409,63.6612457 C21.2625693,63.6602343 21.2618978,63.6602343 21.261562,63.6592229 C21.1608321,63.5540343 21.0913285,63.4272686 21.0554015,63.2920743 L21.0554015,63.2917371 C21.0554015,63.2910629 21.0550657,63.2903886 21.0550657,63.2897143 C21.0550657,63.2897143 21.0550657,63.2887029 21.0547299,63.2880286 C21.0443212,63.2479086 21.0369343,63.2071143 21.0325693,63.1656457 L21.0325693,63.1653086 L21.0325693,63.1629486 L21.0325693,63.1616 L21.0325693,63.1595771 L21.0325693,63.15924 C21.0295474,63.1292343 21.0282044,63.0992286 21.0282044,63.0688857 L21.0282044,17.8428571 C21.0282044,17.3772629 21.403927,17 21.8676204,17 L65.901708,17 C66.3654015,17 66.7411241,17.3772629 66.7411241,17.8428571 L66.7411241,74.9235029 C66.7411241,75.3890971 66.3654015,75.76636 65.901708,75.76636 L33.3652701,75.76636 L33.3592263,75.76636 L33.3592263,75.76636 Z M34.1983066,74.0806457 L65.0609489,74.0806457 L65.0609489,18.6857143 L22.7060292,18.6857143 L22.7060292,62.2324343 L33.3592263,62.2324343 C33.8229197,62.2324343 34.1986423,62.6096971 34.1986423,63.0752914 L34.1986423,74.0806457 L34.1983066,74.0806457 Z M23.8560292,63.9181486 L32.5198102,72.8497371 L32.5198102,63.9181486 L23.8560292,63.9181486 L23.8560292,63.9181486 Z M60.3118686,58.6843429 L27.6129197,58.6843429 C27.1492263,58.6843429 26.7735036,58.30708 26.7735036,57.8414857 C26.7735036,57.3758914 27.1492263,56.9986286 27.6129197,56.9986286 L60.3118686,56.9986286 C60.775562,56.9986286 61.1512847,57.3758914 61.1512847,57.8414857 C61.1512847,58.30708 60.775562,58.6843429 60.3118686,58.6843429 L60.3118686,58.6843429 Z M60.3118686,54.3577886 L27.6129197,54.3577886 C27.1492263,54.3577886 26.7735036,53.9805257 26.7735036,53.5149314 C26.7735036,53.0493371 27.1492263,52.6720743 27.6129197,52.6720743 L60.3118686,52.6720743 C60.775562,52.6720743 61.1512847,53.0493371 61.1512847,53.5149314 C61.1512847,53.9805257 60.775562,54.3577886 60.3118686,54.3577886 L60.3118686,54.3577886 Z M53.8621314,48.3330457 C53.6640292,48.3330457 53.4706277,48.2625829 53.317854,48.1317714 C53.1358686,47.9760114 53.0284234,47.7494514 53.0230511,47.5094057 L52.9914891,46.1139714 L47.2220146,45.2100914 C46.9883212,45.17368 46.7808175,45.0394971 46.6505401,44.8412571 C46.5202628,44.64268 46.479635,44.3985886 46.5383942,44.16832 L48.7420292,35.5253257 C47.3949343,34.2323829 46.4960876,32.4586743 46.3342482,30.4513257 C45.983708,26.1038686 49.2208321,22.2813429 53.5505401,21.9290286 C57.877562,21.5757029 61.6871679,24.8277829 62.037708,29.1745657 L62.037708,29.1745657 C62.2341314,31.6097486 61.3047299,33.8804057 59.6883504,35.4686857 L61.9712263,46.3081657 C62.0195766,46.5374229 61.9708905,46.77612 61.8365839,46.96728 C61.7026131,47.1587771 61.4951095,47.2855429 61.264438,47.3175714 L53.9769635,48.32428 C53.9383504,48.3303486 53.900073,48.3330457 53.8621314,48.3330457 L53.8621314,48.3330457 Z M54.4792701,37.7181029 L54.6797226,46.5262971 L60.141635,45.7717714 L58.2123212,36.6109257 C57.2103942,37.2113771 56.0603942,37.5967314 54.8207445,37.6978743 C54.7069197,37.7069771 54.5927591,37.7133829 54.4792701,37.7181029 L54.4792701,37.7181029 Z M48.3935036,43.6878914 L52.832,44.3834171 L52.9411241,43.9114171 L52.7974161,37.6007771 C51.8663358,37.4332171 50.9866277,37.0997829 50.1932117,36.6294686 L48.3935036,43.6878914 L48.3935036,43.6878914 Z M54.1898394,23.58912 C54.0226277,23.58912 53.8544088,23.5962 53.6855182,23.6100229 C50.2788321,23.8868171 47.7313723,26.8951429 48.0070365,30.3157943 C48.2827007,33.7364457 51.2827737,36.29772 54.6857664,36.0175543 C58.0924526,35.74076 60.6399124,32.7320971 60.3642482,29.3114457 L60.3642482,29.3114457 C60.1016788,26.0607143 57.3829781,23.58912 54.1898394,23.58912 L54.1898394,23.58912 Z M41.1009927,36.9635771 L27.6129197,36.9635771 C27.1492263,36.9635771 26.7735036,36.5863143 26.7735036,36.12072 C26.7735036,35.6551257 27.1492263,35.2778629 27.6129197,35.2778629 L41.1013285,35.2778629 C41.5650219,35.2778629 41.9407445,35.6551257 41.9407445,36.12072 C41.9407445,36.5863143 41.5646861,36.9635771 41.1009927,36.9635771 L41.1009927,36.9635771 Z M41.1009927,31.8615943 L27.6129197,31.8615943 C27.1492263,31.8615943 26.7735036,31.4843314 26.7735036,31.0187371 C26.7735036,30.5531429 27.1492263,30.17588 27.6129197,30.17588 L41.1013285,30.17588 C41.5650219,30.17588 41.9407445,30.5531429 41.9407445,31.0187371 C41.9407445,31.4843314 41.5646861,31.8615943 41.1009927,31.8615943 L41.1009927,31.8615943 Z M41.1009927,26.4497771 L27.6129197,26.4497771 C27.1492263,26.4497771 26.7735036,26.0725143 26.7735036,25.60692 C26.7735036,25.1413257 27.1492263,24.7640629 27.6129197,24.7640629 L41.1013285,24.7640629 C41.5650219,24.7640629 41.9407445,25.1413257 41.9407445,25.60692 C41.9407445,26.0725143 41.5646861,26.4497771 41.1009927,26.4497771 L41.1009927,26.4497771 Z" id="Shape" fill="#0F5FB4"></path>
            </g>
        </g>
    </g>
</svg>