<?xml version="1.0" encoding="UTF-8" standalone="no"?>
<svg width="16px" height="31px" viewBox="0 0 16 31" version="1.1" xmlns="http://www.w3.org/2000/svg" xmlns:xlink="http://www.w3.org/1999/xlink">
    <!-- Generator: Sketch 3.8.3 (29802) - http://www.bohemiancoding.com/sketch -->
    <title>Shape</title>
    <desc>Created with Sketch.</desc>
    <defs></defs>
    <g id="Page-1" stroke="none" stroke-width="1" fill="none" fill-rule="evenodd">
        <g id="Artboard-1" transform="translate(-692.000000, -216.000000)" fill="#FFFFFF">
            <path d="M706.467446,235.657522 L706.467446,219.615708 C706.467446,218.577669 706.018955,217.587682 705.237197,216.899961 C704.456471,216.213274 703.414298,215.898608 702.377292,216.028815 C701.262266,216.171939 700.318265,216.841058 699.763335,217.778342 C699.570608,217.452308 699.327245,217.155209 699.036862,216.899961 C698.256137,216.213274 697.213448,215.898608 696.176958,216.028815 C694.384545,216.258744 693.033389,217.847063 693.033389,219.72318 L693.033389,235.657005 C692.445907,235.770162 692,236.286856 692,236.90689 L692,238.159874 C692,239.990006 693.346506,241.507537 695.100167,241.783969 L695.100167,242.349749 L695.100167,243.383138 L695.100167,244.933222 L696.391903,244.933222 L697.941987,247 L701.558848,247 L703.108932,244.933222 L704.400668,244.933222 L704.400668,243.383138 L704.400668,242.349749 L704.400668,241.783969 C706.154329,241.507537 707.500835,239.990006 707.500835,238.159874 L707.500835,236.90689 C707.500835,236.287373 707.054928,235.770678 706.467446,235.657522 L706.467446,235.657522 Z M702.508016,217.054453 C703.259807,216.955248 703.988346,217.177943 704.554126,217.67552 C705.11319,218.167413 705.43354,218.874251 705.43354,219.615708 L705.43354,235.633238 L703.366762,235.633238 L703.366762,219.615708 C703.366762,219.329976 703.1358,219.099013 702.850068,219.099013 C702.564336,219.099013 702.333373,219.329976 702.333373,219.615708 L702.333373,235.633238 L700.266595,235.633238 L700.266595,219.723697 C700.267112,218.365824 701.230747,217.218245 702.508016,217.054453 L702.508016,217.054453 Z M694.066778,219.723697 C694.066778,218.365824 695.030413,217.217729 696.308199,217.054453 C697.061023,216.955248 697.788529,217.177943 698.354309,217.67552 C698.913373,218.167413 699.233723,218.874251 699.233723,219.615708 L699.233723,219.723697 L699.233723,235.633238 L697.166945,235.633238 L697.166945,219.615708 C697.166945,219.329976 696.935983,219.099013 696.650251,219.099013 C696.364519,219.099013 696.133556,219.329976 696.133556,219.615708 L696.133556,235.633238 L694.066778,235.633238 L694.066778,219.723697 L694.066778,219.723697 Z M701.042154,245.967128 L698.458681,245.967128 L697.68364,244.933739 L701.817196,244.933739 L701.042154,245.967128 L701.042154,245.967128 Z M703.367279,243.90035 L696.133556,243.90035 L696.133556,243.383655 L703.367279,243.383655 L703.367279,243.90035 L703.367279,243.90035 Z M696.133556,242.350266 L696.133556,241.833572 L703.367279,241.833572 L703.367279,242.350266 L696.133556,242.350266 L696.133556,242.350266 Z M706.467446,238.16039 C706.467446,239.615919 705.283182,240.800183 703.827654,240.800183 L695.673181,240.800183 C694.217653,240.800183 693.033389,239.615919 693.033389,238.16039 L693.033389,236.907406 C693.033389,236.774616 693.141378,236.666627 693.274169,236.666627 L699.233723,236.666627 L700.267112,236.666627 L706.226667,236.666627 C706.359457,236.666627 706.467446,236.774616 706.467446,236.907406 L706.467446,238.16039 L706.467446,238.16039 Z" id="Shape"></path>
        </g>
    </g>
</svg>