<?xml version="1.0" encoding="UTF-8" standalone="no"?>
<svg width="21px" height="37px" viewBox="0 0 21 37" version="1.1" xmlns="http://www.w3.org/2000/svg" xmlns:xlink="http://www.w3.org/1999/xlink">
    <!-- Generator: Sketch 3.8.3 (29802) - http://www.bohemiancoding.com/sketch -->
    <title>Shape</title>
    <desc>Created with Sketch.</desc>
    <defs></defs>
    <g id="Page-1" stroke="none" stroke-width="1" fill="none" fill-rule="evenodd">
        <g id="-" transform="translate(-295.000000, -73.000000)" fill="#0F5FB4">
            <path d="M315.382353,106.24406 L313.902635,106.24406 L308.244412,81.2311015 L309.452941,81.2311015 C309.794129,81.2311015 310.070588,80.9627516 310.070588,80.6317495 L310.070588,78.074514 C310.070588,77.7435119 309.794129,77.475162 309.452941,77.475162 L307.435294,77.475162 L307.435294,76.1565875 C307.435294,75.4735659 306.862694,74.9179266 306.158824,74.9179266 L306.117647,74.9179266 L306.117647,73.5993521 C306.117647,73.2683499 305.841188,73 305.5,73 C305.158812,73 304.882353,73.2683499 304.882353,73.5993521 L304.882353,74.9179266 L304.841176,74.9179266 C304.137306,74.9179266 303.564706,75.4735659 303.564706,76.1565875 L303.564706,77.475162 L301.547059,77.475162 C301.205871,77.475162 300.929412,77.7435119 300.929412,78.074514 L300.929412,80.6317495 C300.929412,80.9627516 301.205871,81.2311015 301.547059,81.2311015 L302.755671,81.2311015 L297.097447,106.24406 L295.617647,106.24406 C295.276459,106.24406 295,106.51241 295,106.843413 L295,109.400648 C295,109.73165 295.276459,110 295.617647,110 L315.382353,110 C315.723541,110 316,109.73165 316,109.400648 L316,106.843413 C316,106.51241 315.723541,106.24406 315.382353,106.24406 L315.382353,106.24406 Z M299.919847,106.24406 L305.5,103.149886 L311.080153,106.24406 L299.919847,106.24406 L299.919847,106.24406 Z M309.103682,99.7710583 L305.5,101.769298 L301.896318,99.7710583 L309.103682,99.7710583 L309.103682,99.7710583 Z M301.533635,98.5723542 L305.5,95.8842203 L309.466365,98.5723542 L301.533635,98.5723542 L301.533635,98.5723542 Z M311.220482,99.9778747 L312.504282,105.653259 L306.744847,102.459592 L311.220482,99.9778747 L311.220482,99.9778747 Z M306.578659,95.1531706 L309.657094,93.0667862 L310.771906,97.9950583 L306.578659,95.1531706 L306.578659,95.1531706 Z M308.927365,92.0993521 L305.5,94.422121 L302.072635,92.0993521 L308.927365,92.0993521 L308.927365,92.0993521 Z M302.728741,90.9006479 L305.5,88.0410194 L308.271259,90.9006479 L302.728741,90.9006479 L302.728741,90.9006479 Z M306.347906,87.1661253 L307.948682,85.514311 L308.923576,89.823892 L306.347906,87.1661253 L306.347906,87.1661253 Z M305.5,86.2911512 L303.694082,84.4276458 L307.305918,84.4276458 L305.5,86.2911512 L305.5,86.2911512 Z M303.051318,85.514311 L304.652094,87.1661253 L302.076424,89.823892 L303.051318,85.514311 L303.051318,85.514311 Z M301.342906,93.0668661 L304.421341,95.1532505 L300.228094,97.9951382 L301.342906,93.0668661 L301.342906,93.0668661 Z M299.779518,99.9778747 L304.255153,102.459592 L298.495718,105.653259 L299.779518,99.9778747 L299.779518,99.9778747 Z M304.8,76.1565875 C304.8,76.1345313 304.818529,76.1166307 304.841176,76.1166307 L306.158824,76.1166307 C306.181471,76.1166307 306.2,76.1345313 306.2,76.1565875 L306.2,77.475162 L304.8,77.475162 L304.8,76.1565875 L304.8,76.1565875 Z M302.164706,78.6738661 L308.835294,78.6738661 L308.835294,80.0323974 L302.164706,80.0323974 L302.164706,78.6738661 L302.164706,78.6738661 Z M306.979718,81.2311015 L307.431671,83.2289417 L303.568329,83.2289417 L304.020282,81.2311015 L306.979718,81.2311015 L306.979718,81.2311015 Z M314.764706,108.801296 L296.235294,108.801296 L296.235294,107.442765 L314.764706,107.442765 L314.764706,108.801296 L314.764706,108.801296 Z" id="Shape"></path>
        </g>
    </g>
</svg>