<?xml version="1.0" encoding="UTF-8" standalone="no"?>
<svg width="21px" height="37px" viewBox="0 0 21 37" version="1.1" xmlns="http://www.w3.org/2000/svg" xmlns:xlink="http://www.w3.org/1999/xlink">
    <!-- Generator: Sketch 3.8.3 (29802) - http://www.bohemiancoding.com/sketch -->
    <title>Shape</title>
    <desc>Created with Sketch.</desc>
    <defs></defs>
    <g id="Page-1" stroke="none" stroke-width="1" fill="none" fill-rule="evenodd">
        <g id="Artboard-1" transform="translate(-507.000000, -216.000000)" fill="#FFFFFF">
            <path d="M526.751471,249.24406 L525.317554,249.24406 L519.834466,224.231102 L521.005588,224.231102 C521.336216,224.231102 521.604118,223.962752 521.604118,223.631749 L521.604118,221.074514 C521.604118,220.743512 521.336216,220.475162 521.005588,220.475162 L519.050392,220.475162 L519.050392,219.156587 C519.050392,218.473566 518.495515,217.917927 517.813431,217.917927 L517.773529,217.917927 L517.773529,216.599352 C517.773529,216.26835 517.505628,216 517.175,216 C516.844372,216 516.576471,216.26835 516.576471,216.599352 L516.576471,217.917927 L516.536569,217.917927 C515.854485,217.917927 515.299608,218.473566 515.299608,219.156587 L515.299608,220.475162 L513.344412,220.475162 C513.013784,220.475162 512.745882,220.743512 512.745882,221.074514 L512.745882,223.631749 C512.745882,223.962752 513.013784,224.231102 513.344412,224.231102 L514.515614,224.231102 L509.032526,249.24406 L507.598529,249.24406 C507.267902,249.24406 507,249.51241 507,249.843413 L507,252.400648 C507,252.73165 507.267902,253 507.598529,253 L526.751471,253 C527.082098,253 527.35,252.73165 527.35,252.400648 L527.35,249.843413 C527.35,249.51241 527.082098,249.24406 526.751471,249.24406 L526.751471,249.24406 Z M511.767566,249.24406 L517.175,246.149886 L522.582434,249.24406 L511.767566,249.24406 L511.767566,249.24406 Z M520.66714,242.771058 L517.175,244.769298 L513.68286,242.771058 L520.66714,242.771058 L520.66714,242.771058 Z M513.331404,241.572354 L517.175,238.88422 L521.018596,241.572354 L513.331404,241.572354 L513.331404,241.572354 Z M522.71842,242.977875 L523.962483,248.653259 L518.381316,245.459592 L522.71842,242.977875 L522.71842,242.977875 Z M518.220272,238.153171 L521.203422,236.066786 L522.283728,240.995058 L518.220272,238.153171 L518.220272,238.153171 Z M520.49628,235.099352 L517.175,237.422121 L513.85372,235.099352 L520.49628,235.099352 L520.49628,235.099352 Z M514.489518,233.900648 L517.175,231.041019 L519.860482,233.900648 L514.489518,233.900648 L514.489518,233.900648 Z M517.996661,230.166125 L519.54789,228.514311 L520.492609,232.823892 L517.996661,230.166125 L517.996661,230.166125 Z M517.175,229.291151 L515.42498,227.427646 L518.92502,227.427646 L517.175,229.291151 L517.175,229.291151 Z M514.80211,228.514311 L516.353339,230.166125 L513.857391,232.823892 L514.80211,228.514311 L514.80211,228.514311 Z M513.146578,236.066866 L516.129728,238.153251 L512.066272,240.995138 L513.146578,236.066866 L513.146578,236.066866 Z M511.63158,242.977875 L515.968684,245.459592 L510.387517,248.653259 L511.63158,242.977875 L511.63158,242.977875 Z M516.496667,219.156587 C516.496667,219.134531 516.514623,219.116631 516.536569,219.116631 L517.813431,219.116631 C517.835377,219.116631 517.853333,219.134531 517.853333,219.156587 L517.853333,220.475162 L516.496667,220.475162 L516.496667,219.156587 L516.496667,219.156587 Z M513.942941,221.673866 L520.407059,221.673866 L520.407059,223.032397 L513.942941,223.032397 L513.942941,221.673866 L513.942941,221.673866 Z M518.608917,224.231102 L519.046881,226.228942 L515.303119,226.228942 L515.741083,224.231102 L518.608917,224.231102 L518.608917,224.231102 Z M526.152941,251.801296 L508.197059,251.801296 L508.197059,250.442765 L526.152941,250.442765 L526.152941,251.801296 L526.152941,251.801296 Z" id="Shape"></path>
        </g>
    </g>
</svg>