<?xml version="1.0" encoding="UTF-8" standalone="no"?>
<svg width="19px" height="19px" viewBox="0 0 19 19" version="1.1" xmlns="http://www.w3.org/2000/svg" xmlns:xlink="http://www.w3.org/1999/xlink">
    <!-- Generator: Sketch 3.8.3 (29802) - http://www.bohemiancoding.com/sketch -->
    <title>Group 2</title>
    <desc>Created with Sketch.</desc>
    <defs></defs>
    <g id="Page-1" stroke="none" stroke-width="1" fill="none" fill-rule="evenodd">
        <g id="Artboard-1" transform="translate(-569.000000, -138.000000)" fill="#0F5FB4">
            <g id="Group-2" transform="translate(569.000000, 138.000000)">
                <path d="M13.1380485,8.15026584 L9.49949094,11.7890748 L5.85816815,8.14724921 C5.66183587,7.95091693 5.34358149,7.95091693 5.14724921,8.14724921 C4.95091693,8.34307872 4.95091693,8.66183587 5.14724921,8.85816815 L9.13900376,12.8509282 C9.20134743,12.9132719 9.28681859,12.9605324 9.37228975,12.9829058 C9.41502533,12.9942181 9.45876645,13 9.5020048,13 C9.63347956,13 9.76218907,12.9479631 9.85746427,12.8526879 L13.8492188,8.8609334 C14.0455511,8.66460111 14.0455511,8.34634674 13.8492188,8.15001445 C13.6528865,7.95368217 13.3343808,7.95393356 13.1380485,8.15026584 L13.1380485,8.15026584 Z" id="Shape"></path>
                <path d="M9.5,0 C4.26164063,0 0,4.26164063 0,9.5 C0,14.7383594 4.26164063,19 9.5,19 C14.7383594,19 19,14.7383594 19,9.5 C19,4.26164063 14.7383594,0 9.5,0 L9.5,0 Z M9.5,17.8125 C4.91654687,17.8125 1.1875,14.0834531 1.1875,9.5 C1.1875,4.91654687 4.91654687,1.1875 9.5,1.1875 C14.0834531,1.1875 17.8125,4.91654687 17.8125,9.5 C17.8125,14.0834531 14.0834531,17.8125 9.5,17.8125 L9.5,17.8125 Z" id="Shape"></path>
            </g>
        </g>
    </g>
</svg>