<?xml version="1.0" encoding="UTF-8" standalone="no"?>
<svg width="28px" height="26px" viewBox="0 0 28 26" version="1.1" xmlns="http://www.w3.org/2000/svg" xmlns:xlink="http://www.w3.org/1999/xlink">
    <!-- Generator: Sketch 3.8.3 (29802) - http://www.bohemiancoding.com/sketch -->
    <title>Group 4</title>
    <desc>Created with Sketch.</desc>
    <defs></defs>
    <g id="Page-1" stroke="none" stroke-width="1" fill="none" fill-rule="evenodd">
        <g id="Artboard-1" transform="translate(-480.000000, -750.000000)" fill="#FFFFFF">
            <g id="Group-4" transform="translate(480.000000, 750.000000)">
                <rect id="Rectangle-path" x="1.96491228" y="2.45283019" width="2.94736842" height="0.981132075"></rect>
                <path d="M27.5087719,8.33962264 L27.5087719,4.90566038 L21.6140351,4.90566038 L21.6140351,8.33962264 L21.122807,8.33962264 L21.122807,11.3840755 C21.122807,11.8692453 21.5182456,12.2641509 22.0040702,12.2641509 L23.0877193,12.2641509 L23.0877193,12.754717 C23.0877193,13.393434 23.4998596,13.9330566 24.0701754,14.1361509 L24.0701754,15.5259245 C24.0701754,18.9064151 22.3164912,22.308 18.518807,23.9705283 C20.1133333,22.5326792 21.122807,20.4600377 21.122807,18.1509434 C21.122807,13.8231698 17.5967719,10.3018868 13.2631579,10.3018868 C8.92954386,10.3018868 5.40350877,13.8231698 5.40350877,18.1509434 C5.40350877,19.7472453 5.88589474,21.2321887 6.70919298,22.4728302 C4.99922807,20.8250189 3.92982456,18.5183774 3.92982456,15.9635094 L3.92982456,8.73992453 C4.50014035,8.53683019 4.9122807,7.99720755 4.9122807,7.35849057 L5.99592982,7.35849057 C6.48175439,7.35849057 6.87719298,6.96358491 6.87719298,6.47841509 L6.87719298,3.43396226 L6.38596491,3.43396226 L6.38596491,0 L0.49122807,0 L0.49122807,3.43396226 L0,3.43396226 L0,6.47841509 C0,6.96358491 0.395438596,7.35849057 0.881263158,7.35849057 L1.96491228,7.35849057 C1.96491228,7.99720755 2.37705263,8.53683019 2.94736842,8.73992453 L2.94736842,16.4408302 L2.95866667,16.4408302 C3.20919298,21.7541509 7.616,26 12.9974035,26 C13.0622456,26 13.125614,25.9970566 13.1904561,25.9960755 C13.2150175,25.996566 13.2385965,26 13.2631579,26 C13.317193,26 13.3692632,25.9931321 13.4232982,25.9916604 C20.2921404,25.8224151 25.0526316,21.5682264 25.0526316,15.525434 L25.0526316,14.1356604 C25.6229474,13.932566 26.0350877,13.3929434 26.0350877,12.7542264 L26.0350877,12.2636604 L27.1187368,12.2636604 C27.6045614,12.2641509 28,11.8692453 28,11.3840755 L28,8.33962264 L27.5087719,8.33962264 L27.5087719,8.33962264 Z M1.96491228,5.39622642 L1.96491228,6.37735849 L0.98245614,6.37735849 L0.98245614,4.41509434 L1.47368421,4.41509434 L1.47368421,0.981132075 L1.96491228,0.981132075 L1.96491228,1.96226415 L2.94736842,1.96226415 L2.94736842,0.981132075 L3.92982456,0.981132075 L3.92982456,1.96226415 L4.9122807,1.96226415 L4.9122807,0.981132075 L5.40350877,0.981132075 L5.40350877,4.41509434 L5.89473684,4.41509434 L5.89473684,6.37735849 L4.9122807,6.37735849 L4.9122807,5.39622642 L1.96491228,5.39622642 L1.96491228,5.39622642 Z M3.43859649,7.8490566 C3.16792982,7.8490566 2.94736842,7.62928302 2.94736842,7.35849057 L2.94736842,6.37735849 L3.92982456,6.37735849 L3.92982456,7.35849057 C3.92982456,7.62928302 3.70926316,7.8490566 3.43859649,7.8490566 L3.43859649,7.8490566 Z M6.38596491,18.1509434 C6.38596491,14.3637736 9.47087719,11.2830189 13.2631579,11.2830189 C17.0554386,11.2830189 20.1403509,14.3637736 20.1403509,18.1509434 C20.1403509,19.199283 19.8967018,20.1897358 19.4742456,21.0796226 C19.5847719,20.6111321 19.6491228,20.1244906 19.6491228,19.6226415 C19.6491228,16.1062642 16.7842807,13.245283 13.2631579,13.245283 C9.74203509,13.245283 6.87719298,16.1062642 6.87719298,19.6226415 C6.87719298,20.1244906 6.94154386,20.6111321 7.05207018,21.0796226 C6.62961404,20.1897358 6.38596491,19.199283 6.38596491,18.1509434 L6.38596491,18.1509434 Z M13.4316491,25.0105283 C13.3510877,25.0124906 13.2705263,25.0144528 13.1889825,25.015434 C10.2440702,24.974717 7.85964912,22.5729057 7.85964912,19.6226415 C7.85964912,16.6473585 10.2838596,14.2264151 13.2631579,14.2264151 C16.2424561,14.2264151 18.6666667,16.6473585 18.6666667,19.6226415 C18.6666667,22.5415094 16.3328421,24.9202642 13.4316491,25.0105283 L13.4316491,25.0105283 Z M25.0526316,12.2641509 L25.0526316,12.754717 C25.0526316,13.0255094 24.8320702,13.245283 24.5614035,13.245283 C24.2907368,13.245283 24.0701754,13.0255094 24.0701754,12.754717 L24.0701754,12.2641509 L24.0701754,11.7735849 L25.0526316,11.7735849 L25.0526316,12.2641509 L25.0526316,12.2641509 Z M27.0175439,11.2830189 L26.0350877,11.2830189 L26.0350877,10.7924528 L26.0350877,10.3018868 L23.0877193,10.3018868 L23.0877193,10.7924528 L23.0877193,11.2830189 L22.1052632,11.2830189 L22.1052632,9.32075472 L22.5964912,9.32075472 L22.5964912,5.88679245 L23.0877193,5.88679245 L23.0877193,6.86792453 L24.0701754,6.86792453 L24.0701754,5.88679245 L25.0526316,5.88679245 L25.0526316,6.86792453 L26.0350877,6.86792453 L26.0350877,5.88679245 L26.5263158,5.88679245 L26.5263158,9.32075472 L27.0175439,9.32075472 L27.0175439,11.2830189 L27.0175439,11.2830189 Z" id="Shape"></path>
                <rect id="Rectangle-path" x="23.0877193" y="7.35849057" width="2.94736842" height="0.981132075"></rect>
            </g>
        </g>
    </g>
</svg>