<?xml version="1.0" encoding="UTF-8" standalone="no"?>
<svg width="31px" height="19px" viewBox="0 0 31 19" version="1.1" xmlns="http://www.w3.org/2000/svg" xmlns:xlink="http://www.w3.org/1999/xlink">
    <!-- Generator: Sketch 3.8.3 (29802) - http://www.bohemiancoding.com/sketch -->
    <title>Shape</title>
    <desc>Created with Sketch.</desc>
    <defs></defs>
    <g id="Page-1" stroke="none" stroke-width="1" fill="none" fill-rule="evenodd">
        <g id="Artboard-1" transform="translate(-479.000000, -1534.000000)" fill="#FFFFFF">
            <path d="M509.239947,1536.39049 L508.471188,1536.39049 C508.296156,1535.04379 507.142697,1534 505.749201,1534 C504.355562,1534 503.202032,1535.04379 503.027,1536.39049 L502.258525,1536.39049 C502.062086,1536.39049 501.902915,1536.54973 501.902915,1536.7461 L501.902915,1538.63894 C501.902915,1538.83531 502.062086,1538.99455 502.258525,1538.99455 L503.003174,1538.99455 L503.003174,1539.90101 L501.563235,1539.90101 L501.563235,1538.08732 C501.563235,1537.89095 501.404064,1537.73171 501.207624,1537.73171 C501.011185,1537.73171 500.852014,1537.89095 500.852014,1538.08732 L500.852014,1539.33174 C500.490642,1538.98616 499.974153,1538.56256 499.293229,1538.16676 L499.293229,1537.02049 C499.293229,1536.82412 499.134058,1536.66488 498.937618,1536.66488 C498.741179,1536.66488 498.582008,1536.82412 498.582008,1537.02049 L498.582008,1537.79579 C498.120567,1537.58114 497.601731,1537.38783 497.023223,1537.23705 L497.023223,1536.30927 C497.023223,1536.1129 496.864052,1535.95365 496.667612,1535.95365 C496.471173,1535.95365 496.312002,1536.1129 496.312002,1536.30927 L496.312002,1537.0803 C495.828727,1536.99232 495.309321,1536.93507 494.753217,1536.91764 L494.753217,1535.1413 C494.753217,1534.94493 494.594046,1534.78569 494.397607,1534.78569 C494.201238,1534.78569 494.041996,1534.94493 494.041996,1535.1413 L494.041996,1536.91772 C493.485892,1536.93507 492.966486,1536.99239 492.483211,1537.08037 L492.483211,1536.30934 C492.483211,1536.11297 492.323969,1535.95373 492.127601,1535.95373 C491.931232,1535.95373 491.77199,1536.11297 491.77199,1536.30934 L491.77199,1537.23713 C491.193553,1537.3879 490.674646,1537.58121 490.213206,1537.79586 L490.213206,1537.02056 C490.213206,1536.82419 490.053963,1536.66495 489.857595,1536.66495 C489.661226,1536.66495 489.501984,1536.82419 489.501984,1537.02056 L489.501984,1538.16683 C488.82106,1538.56256 488.304571,1538.98616 487.9432,1539.33181 L487.9432,1538.08739 C487.9432,1537.89102 487.783957,1537.73178 487.587589,1537.73178 C487.391221,1537.73178 487.231978,1537.89102 487.231978,1538.08739 L487.231978,1539.90108 L485.791968,1539.90108 L485.791968,1538.99455 L486.536617,1538.99455 C486.732985,1538.99455 486.892227,1538.83531 486.892227,1538.63894 L486.892227,1536.7461 C486.892227,1536.54973 486.732985,1536.39049 486.536617,1536.39049 L485.767715,1536.39049 C485.592755,1535.04379 484.439509,1534 483.045941,1534 C481.652302,1534 480.498843,1535.04379 480.323883,1536.39049 L479.555195,1536.39049 C479.358826,1536.39049 479.199584,1536.54973 479.199584,1536.7461 L479.199584,1538.63894 C479.199584,1538.83531 479.358826,1538.99455 479.555195,1538.99455 L480.299844,1538.99455 L480.299844,1552.64439 C480.299844,1552.84076 480.459086,1553 480.655454,1553 L485.436428,1553 C485.632796,1553 485.792039,1552.84076 485.792039,1552.64439 L485.792039,1551.95607 L503.003174,1551.95607 L503.003174,1552.64439 C503.003174,1552.84076 503.162346,1553 503.358785,1553 L508.139759,1553 C508.336198,1553 508.49537,1552.84076 508.49537,1552.64439 L508.49537,1538.99455 L509.240019,1538.99455 C509.436458,1538.99455 509.595629,1538.83531 509.595629,1538.63894 L509.595629,1536.7461 C509.595558,1536.54973 509.436387,1536.39049 509.239947,1536.39049 L509.239947,1536.39049 Z M483.045941,1534.71122 C484.04663,1534.71122 484.880253,1535.43752 485.049026,1536.39049 L481.042999,1536.39049 C481.211701,1535.43752 482.045252,1534.71122 483.045941,1534.71122 L483.045941,1534.71122 Z M485.080746,1542.14505 L484.031623,1542.14505 C483.835255,1542.14505 483.676012,1542.30429 483.676012,1542.50066 C483.676012,1542.69703 483.835255,1542.85627 484.031623,1542.85627 L485.080817,1542.85627 L485.080817,1546.25634 L484.031623,1546.25634 C483.835255,1546.25634 483.676012,1546.41558 483.676012,1546.61195 C483.676012,1546.80832 483.835255,1546.96756 484.031623,1546.96756 L485.080817,1546.96756 L485.080817,1550.36763 L484.031623,1550.36763 C483.835255,1550.36763 483.676012,1550.52687 483.676012,1550.72324 C483.676012,1550.91961 483.835255,1551.07885 484.031623,1551.07885 L485.080817,1551.07885 L485.080817,1552.28885 L481.011065,1552.28885 L481.011065,1549.0232 L482.060259,1549.0232 C482.256627,1549.0232 482.41587,1548.86396 482.41587,1548.66759 C482.41587,1548.47123 482.256627,1548.31198 482.060259,1548.31198 L481.011065,1548.31198 L481.011065,1544.91192 L482.060259,1544.91192 C482.256627,1544.91192 482.41587,1544.75267 482.41587,1544.55631 C482.41587,1544.35994 482.256627,1544.2007 482.060259,1544.2007 L481.011065,1544.2007 L481.011065,1540.80063 L482.060259,1540.80063 C482.256627,1540.80063 482.41587,1540.64139 482.41587,1540.44502 C482.41587,1540.24865 482.256627,1540.08941 482.060259,1540.08941 L481.011065,1540.08941 L481.011065,1538.99455 L485.080817,1538.99455 L485.080817,1542.14505 L485.080746,1542.14505 Z M479.910805,1538.28333 L479.910805,1537.10171 L486.181006,1537.10171 L486.181006,1538.28333 L479.910805,1538.28333 L479.910805,1538.28333 Z M487.231978,1551.24485 L485.791968,1551.24485 L485.791968,1550.37061 L487.231907,1550.37061 L487.231907,1551.24485 L487.231978,1551.24485 Z M487.231978,1549.65939 L485.791968,1549.65939 L485.791968,1542.10693 L487.231907,1542.10693 L487.231907,1549.65939 L487.231978,1549.65939 Z M487.231978,1541.39571 L485.791968,1541.39571 L485.791968,1540.61223 L487.231907,1540.61223 L487.231907,1541.39571 L487.231978,1541.39571 Z M489.501984,1551.24485 L487.9432,1551.24485 L487.9432,1550.37061 L489.501984,1550.37061 L489.501984,1551.24485 L489.501984,1551.24485 Z M489.501984,1549.65939 L487.9432,1549.65939 L487.9432,1541.87244 C488.114248,1541.66057 488.624905,1541.08092 489.501984,1540.50739 L489.501984,1549.65939 L489.501984,1549.65939 Z M489.501984,1539.66147 C488.82106,1540.05719 488.304571,1540.48079 487.9432,1540.82645 L487.9432,1540.37774 C488.114248,1540.16586 488.624905,1539.58622 489.501984,1539.01269 L489.501984,1539.66147 L489.501984,1539.66147 Z M494.753217,1537.62929 C495.31238,1537.6485 495.831927,1537.71215 496.312002,1537.80866 L496.312002,1538.575 C495.828727,1538.48703 495.309321,1538.42977 494.753217,1538.41235 L494.753217,1537.62929 L494.753217,1537.62929 Z M496.312002,1539.30337 L496.312002,1543.59929 L494.753217,1543.59929 L494.753217,1539.124 C495.31238,1539.14327 495.831927,1539.20685 496.312002,1539.30337 L496.312002,1539.30337 Z M496.312002,1545.28609 L492.483211,1545.28609 L492.483211,1544.31051 L496.312002,1544.31051 L496.312002,1545.28609 L496.312002,1545.28609 Z M492.483211,1537.80724 C492.963073,1537.71144 493.482549,1537.64835 494.041996,1537.62929 L494.041996,1538.41242 C493.485892,1538.42977 492.966486,1538.4871 492.483211,1538.57508 L492.483211,1537.80724 L492.483211,1537.80724 Z M494.041996,1539.124 L494.041996,1543.59929 L492.483211,1543.59929 L492.483211,1539.30201 C492.963002,1539.20614 493.482549,1539.14306 494.041996,1539.124 L494.041996,1539.124 Z M490.213206,1538.59783 C490.664333,1538.36427 491.183241,1538.14877 491.77199,1537.97992 L491.77199,1538.73169 C491.193553,1538.88247 490.674646,1539.07578 490.213206,1539.29042 L490.213206,1538.59783 L490.213206,1538.59783 Z M491.77199,1551.24485 L490.213206,1551.24485 L490.213206,1550.37061 L491.77199,1550.37061 L491.77199,1551.24485 L491.77199,1551.24485 Z M491.77199,1549.65939 L490.213206,1549.65939 L490.213206,1540.09254 C490.664333,1539.85897 491.183241,1539.64347 491.77199,1539.47463 L491.77199,1549.65939 L491.77199,1549.65939 Z M494.041996,1551.24485 L492.483211,1551.24485 L492.483211,1550.37061 L494.041996,1550.37061 L494.041996,1551.24485 L494.041996,1551.24485 Z M492.483211,1549.65939 L492.483211,1545.99731 L494.041996,1545.99731 L494.041996,1549.65939 L492.483211,1549.65939 L492.483211,1549.65939 Z M496.312002,1551.24485 L494.753217,1551.24485 L494.753217,1550.37061 L496.312002,1550.37061 L496.312002,1551.24485 L496.312002,1551.24485 Z M494.753217,1549.65939 L494.753217,1545.99731 L496.312002,1545.99731 L496.312002,1549.65939 L494.753217,1549.65939 L494.753217,1549.65939 Z M498.582008,1551.24485 L497.023223,1551.24485 L497.023223,1550.37061 L498.582008,1550.37061 L498.582008,1551.24485 L498.582008,1551.24485 Z M498.582008,1549.65939 L497.023223,1549.65939 L497.023223,1539.47705 C497.611617,1539.6466 498.130524,1539.86288 498.582008,1540.09709 L498.582008,1549.65939 L498.582008,1549.65939 Z M498.582008,1539.29049 C498.120567,1539.07585 497.601731,1538.88254 497.023223,1538.73176 L497.023223,1537.98227 C497.611617,1538.15183 498.130524,1538.36811 498.582008,1538.60231 L498.582008,1539.29049 L498.582008,1539.29049 Z M500.852014,1551.24485 L499.293229,1551.24485 L499.293229,1550.37061 L500.852014,1550.37061 L500.852014,1551.24485 L500.852014,1551.24485 Z M500.852014,1549.65939 L499.293229,1549.65939 L499.293229,1540.5123 C500.168103,1541.08455 500.68004,1541.66192 500.852014,1541.87322 L500.852014,1549.65939 L500.852014,1549.65939 Z M500.852014,1540.82645 C500.490642,1540.48086 499.974153,1540.05726 499.293229,1539.66147 L499.293229,1539.0176 C500.168032,1539.5897 500.679969,1540.16714 500.852014,1540.37852 L500.852014,1540.82645 L500.852014,1540.82645 Z M503.003174,1551.24485 L501.563235,1551.24485 L501.563235,1550.37061 L503.003174,1550.37061 L503.003174,1551.24485 L503.003174,1551.24485 Z M503.003174,1549.65939 L501.563235,1549.65939 L501.563235,1542.10693 L503.003174,1542.10693 L503.003174,1549.65939 L503.003174,1549.65939 Z M503.003174,1541.39571 L501.563235,1541.39571 L501.563235,1540.61223 L503.003174,1540.61223 L503.003174,1541.39571 L503.003174,1541.39571 Z M505.749201,1534.71122 C506.749818,1534.71122 507.58337,1535.43752 507.752001,1536.39049 L503.746116,1536.39049 C503.914889,1535.43752 504.748583,1534.71122 505.749201,1534.71122 L505.749201,1534.71122 Z M507.784077,1540.08941 L506.734883,1540.08941 C506.538443,1540.08941 506.379272,1540.24865 506.379272,1540.44502 C506.379272,1540.64139 506.538443,1540.80063 506.734883,1540.80063 L507.784077,1540.80063 L507.784077,1544.2007 L506.734883,1544.2007 C506.538443,1544.2007 506.379272,1544.35994 506.379272,1544.55631 C506.379272,1544.75267 506.538443,1544.91192 506.734883,1544.91192 L507.784077,1544.91192 L507.784077,1548.31198 L506.734883,1548.31198 C506.538443,1548.31198 506.379272,1548.47123 506.379272,1548.66759 C506.379272,1548.86396 506.538443,1549.0232 506.734883,1549.0232 L507.784077,1549.0232 L507.784077,1552.28885 L503.714325,1552.28885 L503.714325,1551.07885 L504.76359,1551.07885 C504.960029,1551.07885 505.119201,1550.91961 505.119201,1550.72324 C505.119201,1550.52687 504.960029,1550.36763 504.76359,1550.36763 L503.714325,1550.36763 L503.714325,1546.96756 L504.76359,1546.96756 C504.960029,1546.96756 505.119201,1546.80832 505.119201,1546.61195 C505.119201,1546.41558 504.960029,1546.25634 504.76359,1546.25634 L503.714325,1546.25634 L503.714325,1542.85627 L504.76359,1542.85627 C504.960029,1542.85627 505.119201,1542.69703 505.119201,1542.50066 C505.119201,1542.30429 504.960029,1542.14505 504.76359,1542.14505 L503.714325,1542.14505 L503.714325,1538.99455 L507.784077,1538.99455 L507.784077,1540.08941 L507.784077,1540.08941 Z M508.884337,1538.28333 L502.614136,1538.28333 L502.614136,1537.10171 L508.884337,1537.10171 L508.884337,1538.28333 L508.884337,1538.28333 Z" id="Shape"></path>
        </g>
    </g>
</svg>