<?xml version="1.0" encoding="UTF-8" standalone="no"?>
<svg width="91px" height="91px" viewBox="0 0 91 91" version="1.1" xmlns="http://www.w3.org/2000/svg" xmlns:xlink="http://www.w3.org/1999/xlink">
    <!-- Generator: Sketch 3.8.3 (29802) - http://www.bohemiancoding.com/sketch -->
    <title>Group</title>
    <desc>Created with Sketch.</desc>
    <defs></defs>
    <g id="Page-1" stroke="none" stroke-width="1" fill="none" fill-rule="evenodd">
        <g id="-" transform="translate(-337.000000, -267.000000)">
            <g id="Group" transform="translate(337.000000, 267.000000)">
                <circle id="Oval-1" fill="#DBE9F4" cx="45.5" cy="45.5" r="45.5"></circle>
                <g id="Group-2" transform="translate(22.000000, 23.000000)" fill="#0F5FB4">
                    <path d="M13.5450719,3.08829569 C13.5450719,1.38973306 12.1553388,0 10.4567762,0 L3.09312115,0 C1.39455852,0 0.00482546201,1.38973306 0.00482546201,3.08829569 L0.00482546201,10.4422998 C0.00482546201,12.1408624 1.39455852,13.5305955 3.09312115,13.5305955 L10.4471253,13.5305955 C12.1456879,13.5305955 13.5354209,12.1408624 13.5354209,10.4422998 L13.5354209,3.08829569 L13.5450719,3.08829569 L13.5450719,3.08829569 Z M11.1805955,10.4519507 C11.1805955,10.8476386 10.8524641,11.17577 10.4567762,11.17577 L3.09312115,11.17577 C2.69743326,11.17577 2.36930185,10.8476386 2.36930185,10.4519507 L2.36930185,3.08829569 C2.36930185,2.6926078 2.69743326,2.36447639 3.09312115,2.36447639 L10.4471253,2.36447639 C10.8428131,2.36447639 11.1709446,2.6926078 11.1709446,3.08829569 L11.1709446,10.4519507 L11.1805955,10.4519507 L11.1805955,10.4519507 Z" id="Shape"></path>
                    <path d="M13.5450719,19.813347 C13.5450719,18.1147844 12.1553388,16.7250513 10.4567762,16.7250513 L3.09312115,16.7250513 C1.39455852,16.7250513 0.00482546201,18.1147844 0.00482546201,19.813347 L0.00482546201,27.1673511 C0.00482546201,28.8659138 1.39455852,30.2556468 3.09312115,30.2556468 L10.4471253,30.2556468 C12.1456879,30.2556468 13.5354209,28.8659138 13.5354209,27.1673511 L13.5354209,19.813347 L13.5450719,19.813347 L13.5450719,19.813347 Z M11.1805955,27.1673511 C11.1805955,27.563039 10.8524641,27.8911704 10.4567762,27.8911704 L3.09312115,27.8911704 C2.69743326,27.8911704 2.36930185,27.563039 2.36930185,27.1673511 L2.36930185,19.813347 C2.36930185,19.4176591 2.69743326,19.0895277 3.09312115,19.0895277 L10.4471253,19.0895277 C10.8428131,19.0895277 11.1709446,19.4176591 11.1709446,19.813347 L11.1709446,27.1673511 L11.1805955,27.1673511 L11.1805955,27.1673511 Z" id="Shape"></path>
                    <path d="M10.4567762,33.4404517 L3.09312115,33.4404517 C1.39455852,33.4404517 0.00482546201,34.8301848 0.00482546201,36.5287474 L0.00482546201,43.8827515 C0.00482546201,45.5813142 1.39455852,46.9710472 3.09312115,46.9710472 L10.4471253,46.9710472 C12.1456879,46.9710472 13.5354209,45.5813142 13.5354209,43.8827515 L13.5354209,36.5287474 C13.5450719,34.8301848 12.1553388,33.4404517 10.4567762,33.4404517 L10.4567762,33.4404517 Z M11.1805955,43.8924025 C11.1805955,44.2880903 10.8524641,44.6162218 10.4567762,44.6162218 L3.09312115,44.6162218 C2.69743326,44.6162218 2.36930185,44.2880903 2.36930185,43.8924025 L2.36930185,36.5383984 C2.36930185,36.1427105 2.69743326,35.8145791 3.09312115,35.8145791 L10.4471253,35.8145791 C10.8428131,35.8145791 11.1709446,36.1427105 11.1709446,36.5383984 L11.1709446,43.8924025 L11.1805955,43.8924025 L11.1805955,43.8924025 Z" id="Shape"></path>
                    <path d="M16.7298768,27.1673511 C16.7298768,28.8659138 18.1196099,30.2556468 19.8181725,30.2556468 L27.1721766,30.2556468 C28.8707392,30.2556468 30.2604723,28.8659138 30.2604723,27.1673511 L30.2604723,19.813347 C30.2604723,18.1147844 28.8707392,16.7250513 27.1721766,16.7250513 L19.8181725,16.7250513 C18.1196099,16.7250513 16.7298768,18.1147844 16.7298768,19.813347 L16.7298768,27.1673511 L16.7298768,27.1673511 L16.7298768,27.1673511 Z M19.0943532,19.813347 C19.0943532,19.4176591 19.4224846,19.0895277 19.8181725,19.0895277 L27.1721766,19.0895277 C27.5678645,19.0895277 27.8959959,19.4176591 27.8959959,19.813347 L27.8959959,27.1673511 C27.8959959,27.563039 27.5678645,27.8911704 27.1721766,27.8911704 L19.8181725,27.8911704 C19.4224846,27.8911704 19.0943532,27.563039 19.0943532,27.1673511 L19.0943532,19.813347 L19.0943532,19.813347 L19.0943532,19.813347 Z" id="Shape"></path>
                    <path d="M16.7298768,43.8924025 C16.7298768,45.5909651 18.1196099,46.9806982 19.8181725,46.9806982 L27.1721766,46.9806982 C28.8707392,46.9806982 30.2604723,45.5909651 30.2604723,43.8924025 L30.2604723,36.5383984 C30.2604723,34.8398357 28.8707392,33.4501027 27.1721766,33.4501027 L19.8181725,33.4501027 C18.1196099,33.4501027 16.7298768,34.8398357 16.7298768,36.5383984 L16.7298768,43.8924025 L16.7298768,43.8924025 L16.7298768,43.8924025 Z M19.0943532,36.5287474 C19.0943532,36.1330595 19.4224846,35.8049281 19.8181725,35.8049281 L27.1721766,35.8049281 C27.5678645,35.8049281 27.8959959,36.1330595 27.8959959,36.5287474 L27.8959959,43.8827515 C27.8959959,44.2784394 27.5678645,44.6065708 27.1721766,44.6065708 L19.8181725,44.6065708 C19.4224846,44.6065708 19.0943532,44.2784394 19.0943532,43.8827515 L19.0943532,36.5287474 L19.0943532,36.5287474 L19.0943532,36.5287474 Z" id="Shape"></path>
                    <path d="M33.4452772,27.1673511 C33.4452772,28.8659138 34.8350103,30.2556468 36.5335729,30.2556468 L43.887577,30.2556468 C45.5861396,30.2556468 46.9758727,28.8659138 46.9758727,27.1673511 L46.9758727,19.813347 C46.9758727,18.1147844 45.5861396,16.7250513 43.887577,16.7250513 L36.5335729,16.7250513 C34.8350103,16.7250513 33.4452772,18.1147844 33.4452772,19.813347 L33.4452772,27.1673511 L33.4452772,27.1673511 L33.4452772,27.1673511 Z M35.8097536,19.813347 C35.8097536,19.4176591 36.137885,19.0895277 36.5335729,19.0895277 L43.887577,19.0895277 C44.2832649,19.0895277 44.6113963,19.4176591 44.6113963,19.813347 L44.6113963,27.1673511 C44.6113963,27.563039 44.2832649,27.8911704 43.887577,27.8911704 L36.5335729,27.8911704 C36.137885,27.8911704 35.8097536,27.563039 35.8097536,27.1673511 L35.8097536,19.813347 L35.8097536,19.813347 L35.8097536,19.813347 Z" id="Shape"></path>
                    <path d="M33.4452772,43.8924025 C33.4452772,45.5909651 34.8350103,46.9806982 36.5335729,46.9806982 L43.887577,46.9806982 C45.5861396,46.9806982 46.9758727,45.5909651 46.9758727,43.8924025 L46.9758727,36.5383984 C46.9758727,34.8398357 45.5861396,33.4501027 43.887577,33.4501027 L36.5335729,33.4501027 C34.8350103,33.4501027 33.4452772,34.8398357 33.4452772,36.5383984 L33.4452772,43.8924025 L33.4452772,43.8924025 L33.4452772,43.8924025 Z M35.8097536,36.5287474 C35.8097536,36.1330595 36.137885,35.8049281 36.5335729,35.8049281 L43.887577,35.8049281 C44.2832649,35.8049281 44.6113963,36.1330595 44.6113963,36.5287474 L44.6113963,43.8827515 C44.6113963,44.2784394 44.2832649,44.6065708 43.887577,44.6065708 L36.5335729,44.6065708 C36.137885,44.6065708 35.8097536,44.2784394 35.8097536,43.8827515 L35.8097536,36.5287474 L35.8097536,36.5287474 L35.8097536,36.5287474 Z" id="Shape"></path>
                    <path d="M16.7298768,3.08829569 L16.7298768,10.4422998 C16.7298768,12.1408624 18.1196099,13.5305955 19.8181725,13.5305955 L27.1721766,13.5305955 C28.8707392,13.5305955 30.2604723,12.1408624 30.2604723,10.4422998 L30.2604723,3.08829569 C30.2604723,1.38973306 28.8707392,0 27.1721766,0 L19.8181725,0 C18.1099589,0 16.7298768,1.38973306 16.7298768,3.08829569 L16.7298768,3.08829569 Z M19.0943532,3.08829569 C19.0943532,2.6926078 19.4224846,2.36447639 19.8181725,2.36447639 L27.1721766,2.36447639 C27.5678645,2.36447639 27.8959959,2.6926078 27.8959959,3.08829569 L27.8959959,10.4422998 C27.8959959,10.8379877 27.5678645,11.1661191 27.1721766,11.1661191 L19.8181725,11.1661191 C19.4224846,11.1661191 19.0943532,10.8379877 19.0943532,10.4422998 L19.0943532,3.08829569 L19.0943532,3.08829569 L19.0943532,3.08829569 Z" id="Shape"></path>
                    <path d="M36.5335729,13.5402464 L43.887577,13.5402464 C45.5861396,13.5402464 46.9758727,12.1505133 46.9758727,10.4519507 L46.9758727,3.08829569 C46.9758727,1.38973306 45.5861396,0 43.887577,0 L36.5335729,0 C34.8350103,0 33.4452772,1.38973306 33.4452772,3.08829569 L33.4452772,10.4422998 C33.4452772,12.1505133 34.8350103,13.5402464 36.5335729,13.5402464 L36.5335729,13.5402464 Z M35.8097536,3.08829569 C35.8097536,2.6926078 36.137885,2.36447639 36.5335729,2.36447639 L43.887577,2.36447639 C44.2832649,2.36447639 44.6113963,2.6926078 44.6113963,3.08829569 L44.6113963,10.4422998 C44.6113963,10.8379877 44.2832649,11.1661191 43.887577,11.1661191 L36.5335729,11.1661191 C36.137885,11.1661191 35.8097536,10.8379877 35.8097536,10.4422998 L35.8097536,3.08829569 L35.8097536,3.08829569 L35.8097536,3.08829569 Z" id="Shape"></path>
                </g>
            </g>
        </g>
    </g>
</svg>