<?xml version="1.0" encoding="UTF-8" standalone="no"?>
<svg width="24px" height="26px" viewBox="0 0 24 26" version="1.1" xmlns="http://www.w3.org/2000/svg" xmlns:xlink="http://www.w3.org/1999/xlink">
    <!-- Generator: Sketch 3.8.3 (29802) - http://www.bohemiancoding.com/sketch -->
    <title>Group 3</title>
    <desc>Created with Sketch.</desc>
    <defs></defs>
    <g id="Page-1" stroke="none" stroke-width="1" fill="none" fill-rule="evenodd">
        <g id="Artboard-1" transform="translate(-483.000000, -1574.000000)" fill="#FFFFFF">
            <g id="Group-3" transform="translate(483.000000, 1574.000000)">
                <path d="M12,3.85185185 C7.50048,3.85185185 3.84,7.52362963 3.84,12.037037 C3.84,15.4613333 5.94768,18.4946667 9.12,19.6925926 L9.12,24.0740741 C9.12,24.3403333 9.33456,24.5555556 9.6,24.5555556 L10.08,24.5555556 L10.08,25.5185185 C10.08,25.7847778 10.29456,26 10.56,26 L13.44,26 C13.70544,26 13.92,25.7847778 13.92,25.5185185 L13.92,24.5555556 L14.4,24.5555556 C14.66544,24.5555556 14.88,24.3403333 14.88,24.0740741 L14.88,19.6925926 C18.05232,18.4946667 20.16,15.4613333 20.16,12.037037 C20.16,7.52362963 16.49952,3.85185185 12,3.85185185 L12,3.85185185 Z M13.44,23.5925926 C13.17456,23.5925926 12.96,23.8078148 12.96,24.0740741 L12.96,25.037037 L11.04,25.037037 L11.04,24.0740741 C11.04,23.8078148 10.82544,23.5925926 10.56,23.5925926 L10.08,23.5925926 L10.08,21.1851852 L13.92,21.1851852 L13.92,23.5925926 L13.44,23.5925926 L13.44,23.5925926 Z M14.25024,18.8942963 C14.05296,18.9592963 13.92,19.1441852 13.92,19.3517037 L13.92,20.2222222 L10.08,20.2222222 L10.08,19.3517037 C10.08,19.1437037 9.94704,18.9592963 9.74976,18.8942963 C6.7896,17.9178519 4.8,15.1618519 4.8,12.037037 C4.8,8.0547037 8.02992,4.81481481 12,4.81481481 C15.97008,4.81481481 19.2,8.0547037 19.2,12.037037 C19.2,15.1618519 17.2104,17.9178519 14.25024,18.8942963 L14.25024,18.8942963 Z" id="Shape"></path>
                <path d="M12,2.88888889 C12.26544,2.88888889 12.48,2.67366667 12.48,2.40740741 L12.48,0.481481481 C12.48,0.215222222 12.26544,0 12,0 C11.73456,0 11.52,0.215222222 11.52,0.481481481 L11.52,2.40740741 C11.52,2.67366667 11.73456,2.88888889 12,2.88888889 L12,2.88888889 Z" id="Shape"></path>
                <path d="M23.52,11.5555556 L21.6,11.5555556 C21.33456,11.5555556 21.12,11.7707778 21.12,12.037037 C21.12,12.3032963 21.33456,12.5185185 21.6,12.5185185 L23.52,12.5185185 C23.78544,12.5185185 24,12.3032963 24,12.037037 C24,11.7707778 23.78544,11.5555556 23.52,11.5555556 L23.52,11.5555556 Z" id="Shape"></path>
                <path d="M2.4,11.5555556 L0.48,11.5555556 C0.21456,11.5555556 0,11.7707778 0,12.037037 C0,12.3032963 0.21456,12.5185185 0.48,12.5185185 L2.4,12.5185185 C2.66544,12.5185185 2.88,12.3032963 2.88,12.037037 C2.88,11.7707778 2.66544,11.5555556 2.4,11.5555556 L2.4,11.5555556 Z" id="Shape"></path>
                <path d="M19.80672,3.52540741 L18.44928,4.88703704 C18.2616,5.0752963 18.2616,5.37959259 18.44928,5.56785185 C18.54288,5.66174074 18.66576,5.70892593 18.78864,5.70892593 C18.91152,5.70892593 19.0344,5.66174074 19.128,5.56785185 L20.48544,4.20622222 C20.67312,4.01796296 20.67312,3.71366667 20.48544,3.52540741 C20.29776,3.33714815 19.99392,3.33762963 19.80672,3.52540741 L19.80672,3.52540741 Z" id="Shape"></path>
                <path d="M4.872,18.5062222 L3.51456,19.8678519 C3.32688,20.0561111 3.32688,20.3604074 3.51456,20.5486667 C3.60816,20.6425556 3.73104,20.6897407 3.85392,20.6897407 C3.9768,20.6897407 4.09968,20.6425556 4.19328,20.5486667 L5.55072,19.187037 C5.7384,18.9987778 5.7384,18.6944815 5.55072,18.5062222 C5.36304,18.317963 5.05968,18.317963 4.872,18.5062222 L4.872,18.5062222 Z" id="Shape"></path>
                <path d="M19.128,18.5062222 C18.94032,18.317963 18.63696,18.317963 18.44928,18.5062222 C18.2616,18.6944815 18.2616,18.9987778 18.44928,19.187037 L19.80672,20.5486667 C19.90032,20.6425556 20.0232,20.6897407 20.14608,20.6897407 C20.26896,20.6897407 20.39184,20.6425556 20.48544,20.5486667 C20.67312,20.3604074 20.67312,20.0561111 20.48544,19.8678519 L19.128,18.5062222 L19.128,18.5062222 Z" id="Shape"></path>
                <path d="M4.872,5.56785185 C4.9656,5.66174074 5.08848,5.70892593 5.21136,5.70892593 C5.33424,5.70892593 5.45712,5.66174074 5.55072,5.56785185 C5.7384,5.37959259 5.7384,5.0752963 5.55072,4.88703704 L4.19328,3.52540741 C4.0056,3.33714815 3.70224,3.33714815 3.51456,3.52540741 C3.32688,3.71366667 3.32688,4.01796296 3.51456,4.20622222 L4.872,5.56785185 L4.872,5.56785185 Z" id="Shape"></path>
                <path d="M12,6.25925926 C8.82384,6.25925926 6.24,8.85107407 6.24,12.037037 C6.24,12.3032963 6.45456,12.5185185 6.72,12.5185185 C6.98544,12.5185185 7.2,12.3032963 7.2,12.037037 C7.2,9.38214815 9.35328,7.22222222 12,7.22222222 C12.26544,7.22222222 12.48,7.007 12.48,6.74074074 C12.48,6.47448148 12.26544,6.25925926 12,6.25925926 L12,6.25925926 Z" id="Shape"></path>
            </g>
        </g>
    </g>
</svg>