<?xml version="1.0" encoding="UTF-8" standalone="no"?>
<svg width="25px" height="27px" viewBox="0 0 25 27" version="1.1" xmlns="http://www.w3.org/2000/svg" xmlns:xlink="http://www.w3.org/1999/xlink">
    <!-- Generator: Sketch 3.8.3 (29802) - http://www.bohemiancoding.com/sketch -->
    <title>Shape</title>
    <desc>Created with Sketch.</desc>
    <defs></defs>
    <g id="Page-1" stroke="none" stroke-width="1" fill="none" fill-rule="evenodd">
        <g id="Artboard-1" transform="translate(-482.000000, -1354.000000)" fill="#FFFFFF">
            <path d="M505.584171,1354 L500.252603,1354 C499.910102,1354 499.603832,1354.1532 499.396868,1354.39412 L498.058542,1354.39412 C498.011338,1354.39412 497.964342,1354.39488 497.918312,1354.39633 C496.774595,1354.43235 495.705066,1354.90494 494.906818,1355.7272 C494.698198,1355.9421 494.51456,1356.17522 494.356249,1356.42228 C494.197938,1356.17522 494.01437,1355.9421 493.80575,1355.7272 C493.007502,1354.90494 491.938041,1354.43235 490.795015,1354.3964 C490.748226,1354.39488 490.701229,1354.39412 490.654026,1354.39412 L489.315699,1354.39412 C489.108735,1354.1532 488.802534,1354 488.459965,1354 L483.128396,1354 C482.505228,1354 482,1354.50516 482,1355.1284 L482,1356.55802 L482.356303,1356.55802 C482.356303,1357.56317 483.475037,1358.35058 484.903216,1358.35058 C486.331395,1358.35058 487.450129,1357.56324 487.450129,1356.55802 L489.588292,1356.55802 L489.588292,1355.77434 L490.653957,1355.77434 C490.686116,1355.77434 490.718137,1355.77482 490.750779,1355.77586 C492.385507,1355.82727 493.666072,1357.14972 493.666072,1358.78645 L493.666072,1379.2581 L491.567867,1379.2581 L491.567867,1381 L497.144562,1381 L497.144562,1379.2581 L495.046357,1379.2581 L495.046357,1358.78645 C495.046357,1357.14972 496.326922,1355.82727 497.96241,1355.77586 C497.994293,1355.77482 498.026383,1355.77434 498.058542,1355.77434 L499.124207,1355.77434 L499.124207,1356.55802 L501.262369,1356.55802 C501.262369,1357.56317 502.381103,1358.35058 503.809282,1358.35058 C505.237461,1358.35058 506.356196,1357.56324 506.356196,1356.55802 L506.712567,1356.55802 L506.712567,1355.1284 C506.712567,1354.50516 506.207408,1354 505.584171,1354 L505.584171,1354 Z M484.903285,1357.72948 C483.859359,1357.72948 482.977469,1357.19306 482.977469,1356.55802 L486.82917,1356.55802 C486.829101,1357.19306 485.947212,1357.72948 484.903285,1357.72948 L484.903285,1357.72948 Z M503.809351,1357.72948 C502.765425,1357.72948 501.883535,1357.19306 501.883535,1356.55802 L505.735236,1356.55802 C505.735167,1357.19306 504.853278,1357.72948 503.809351,1357.72948 L503.809351,1357.72948 Z" id="Shape"></path>
        </g>
    </g>
</svg>