<?xml version="1.0" encoding="UTF-8" standalone="no"?>
<svg width="31px" height="29px" viewBox="0 0 31 29" version="1.1" xmlns="http://www.w3.org/2000/svg" xmlns:xlink="http://www.w3.org/1999/xlink">
    <!-- Generator: Sketch 3.8.3 (29802) - http://www.bohemiancoding.com/sketch -->
    <title>Shape</title>
    <desc>Created with Sketch.</desc>
    <defs></defs>
    <g id="Page-1" stroke="none" stroke-width="1" fill="none" fill-rule="evenodd">
        <g id="Artboard-1" transform="translate(-546.000000, -221.000000)" fill="#FFFFFF">
            <path d="M576.262923,236.835018 L566.351028,231.383526 L566.351028,230.157895 C566.351028,229.876544 566.123098,229.649123 565.842256,229.649123 L564.824712,229.649123 L564.824712,228.631579 L565.333484,228.631579 C565.614326,228.631579 565.842256,228.404158 565.842256,228.122807 L565.842256,226.596491 C565.842256,226.31514 565.614326,226.087719 565.333484,226.087719 L562.789624,226.087719 L562.789624,224.561404 C562.789624,224.280053 562.561694,224.052632 562.280852,224.052632 L561.77208,224.052632 L561.77208,221.508772 C561.77208,221.227421 561.544151,221 561.263309,221 C560.982466,221 560.754537,221.227421 560.754537,221.508772 L560.754537,224.052632 L560.245765,224.052632 C559.964923,224.052632 559.736993,224.280053 559.736993,224.561404 L559.736993,226.087719 L557.193133,226.087719 C556.912291,226.087719 556.684361,226.31514 556.684361,226.596491 L556.684361,228.122807 C556.684361,228.404158 556.912291,228.631579 557.193133,228.631579 L557.701905,228.631579 L557.701905,229.649123 L556.684361,229.649123 C556.403519,229.649123 556.175589,229.876544 556.175589,230.157895 L556.175589,231.383526 L546.263694,236.835018 C546.060186,236.946947 545.958431,237.182509 546.015923,237.407386 C546.073923,237.632263 546.276923,237.789474 546.508923,237.789474 L556.08401,237.789474 L555.23487,242.883807 C554.938765,244.659421 555.436344,246.465561 556.600414,247.838737 C557.763975,249.212421 559.463273,250 561.263817,250 C563.064361,250 564.763659,249.212421 565.927221,247.838737 C567.090782,246.465561 567.588361,244.659421 567.292765,242.883807 L566.443116,237.789474 L576.017694,237.789474 C576.249694,237.789474 576.452694,237.631754 576.510694,237.407386 C576.568186,237.182509 576.466431,236.946947 576.262923,236.835018 L576.262923,236.835018 Z M560.754537,225.070175 L561.77208,225.070175 L561.77208,226.087719 L560.754537,226.087719 L560.754537,225.070175 L560.754537,225.070175 Z M557.701905,227.105263 L560.245765,227.105263 L562.280852,227.105263 L564.824712,227.105263 L564.824712,227.614035 L564.31594,227.614035 L558.210677,227.614035 L557.701905,227.614035 L557.701905,227.105263 L557.701905,227.105263 Z M558.719449,228.631579 L563.807168,228.631579 L563.807168,229.649123 L558.719449,229.649123 L558.719449,228.631579 L558.719449,228.631579 Z M557.193133,230.666667 L558.210677,230.666667 L564.31594,230.666667 L565.333484,230.666667 L565.333484,231.175439 L557.193133,231.175439 L557.193133,230.666667 L557.193133,230.666667 Z M566.288449,243.050684 C566.535203,244.530702 566.120045,246.036158 565.150326,247.180895 C564.180607,248.32614 562.763677,248.982456 561.263309,248.982456 C559.76294,248.982456 558.346519,248.32614 557.376291,247.180895 C556.406572,246.036158 555.991414,244.530702 556.238168,243.050684 L557.115291,237.789474 L558.813063,237.789474 C558.75608,237.949228 558.719449,238.119158 558.719449,238.298246 C558.719449,239.139754 559.404256,239.824561 560.245765,239.824561 L560.754537,239.824561 L560.754537,240.842105 L560.245765,240.842105 C559.404256,240.842105 558.719449,241.526912 558.719449,242.368421 C558.719449,243.20993 559.404256,243.894737 560.245765,243.894737 L560.754537,243.894737 L560.754537,245.421053 C560.754537,245.702404 560.982466,245.929825 561.263309,245.929825 C561.544151,245.929825 561.77208,245.702404 561.77208,245.421053 L561.77208,243.894737 L562.280852,243.894737 C562.561186,243.894737 562.789624,244.122667 562.789624,244.403509 C562.789624,244.684351 562.561186,244.912281 562.280852,244.912281 C562.00001,244.912281 561.77208,245.139702 561.77208,245.421053 C561.77208,245.702404 562.00001,245.929825 562.280852,245.929825 C563.122361,245.929825 563.807168,245.245018 563.807168,244.403509 C563.807168,243.562 563.122361,242.877193 562.280852,242.877193 L561.77208,242.877193 L561.77208,241.859649 L562.280852,241.859649 C563.122361,241.859649 563.807168,241.174842 563.807168,240.333333 C563.807168,239.491825 563.122361,238.807018 562.280852,238.807018 L561.77208,238.807018 L561.77208,237.789474 L562.280852,237.789474 L565.411326,237.789474 L566.288449,243.050684 L566.288449,243.050684 Z M560.245765,237.789474 L560.754537,237.789474 L560.754537,238.807018 L560.245765,238.807018 C559.965431,238.807018 559.736993,238.579088 559.736993,238.298246 C559.736993,238.017404 559.965431,237.789474 560.245765,237.789474 L560.245765,237.789474 Z M561.77208,239.824561 L562.280852,239.824561 C562.561186,239.824561 562.789624,240.052491 562.789624,240.333333 C562.789624,240.614175 562.561186,240.842105 562.280852,240.842105 L561.77208,240.842105 L561.77208,239.824561 L561.77208,239.824561 Z M560.754537,241.859649 L560.754537,242.877193 L560.245765,242.877193 C559.965431,242.877193 559.736993,242.649263 559.736993,242.368421 C559.736993,242.087579 559.965431,241.859649 560.245765,241.859649 L560.754537,241.859649 L560.754537,241.859649 Z M565.842256,236.77193 L562.280852,236.77193 L560.245765,236.77193 L556.684361,236.77193 L548.489572,236.77193 L556.815116,232.192982 L565.711502,232.192982 L574.036537,236.77193 L565.842256,236.77193 L565.842256,236.77193 Z" id="Shape"></path>
        </g>
    </g>
</svg>