<?xml version="1.0" encoding="UTF-8" standalone="no"?>
<svg width="34px" height="34px" viewBox="0 0 34 34" version="1.1" xmlns="http://www.w3.org/2000/svg" xmlns:xlink="http://www.w3.org/1999/xlink">
    <!-- Generator: Sketch 3.8.3 (29802) - http://www.bohemiancoding.com/sketch -->
    <title>Group 6</title>
    <desc>Created with Sketch.</desc>
    <defs></defs>
    <g id="Page-1" stroke="none" stroke-width="1" fill="none" fill-rule="evenodd">
        <g id="-" transform="translate(-271.000000, -379.000000)" fill="#0F5FB4">
            <g id="Group-6" transform="translate(271.000000, 379.000000)">
                <path d="M21.6533103,11.724431 L21.651625,11.724431 L12.2723147,11.753375 C11.968806,11.7543276 11.7234784,12.0011207 11.724431,12.3046293 L11.753375,21.6839397 C11.7543276,21.9868621 12.0001681,22.2318233 12.302944,22.2318233 L12.3046293,22.2318233 L21.6839397,22.2028793 C21.9874483,22.2019267 22.2327759,21.9551336 22.2318233,21.651625 L22.2028793,12.2723147 C22.2019267,11.9693922 21.9560862,11.724431 21.6533103,11.724431 L21.6533103,11.724431 Z M21.1082845,13.7557845 C20.9736034,13.5838793 20.8287371,13.4184224 20.6713405,13.2620517 C20.513944,13.105681 20.3476078,12.9617672 20.1748966,12.8281853 L21.1053534,12.8253276 L21.1082845,13.7557845 L21.1082845,13.7557845 Z M16.9909138,21.1181767 L16.9777241,21.1181767 C15.8769009,21.1181034 14.8409267,20.6909784 14.0597328,19.9146207 C13.2753879,19.1350388 12.8415216,18.0967198 12.8381509,16.9908405 C12.8347069,15.8850345 13.2621983,14.8440776 14.0417069,14.0596595 C14.8212888,13.2753147 15.8596078,12.8414483 16.9654871,12.8380776 L16.9786767,12.8380776 C18.0795,12.8380776 19.1154741,13.2652759 19.8966681,14.0416336 C20.6810129,14.8212155 21.1148793,15.8595345 21.11825,16.9653405 L21.11825,16.9653405 C21.121694,18.0711466 20.6942026,19.1121034 19.914694,19.8965216 C19.1351121,20.6809397 18.0967198,21.114806 16.9909138,21.1181767 L16.9909138,21.1181767 Z M13.7557845,12.8479698 C13.5838793,12.9826509 13.4184224,13.1275172 13.2620517,13.2849138 C13.1056078,13.4423103 12.9617672,13.6086466 12.8281853,13.781431 L12.8253276,12.8509009 L13.7557845,12.8479698 L13.7557845,12.8479698 Z M12.8479698,20.2004698 C12.9826509,20.372375 13.1275172,20.5378319 13.2849138,20.6942026 C13.4423103,20.8505733 13.6086466,20.9944871 13.7813578,21.128069 L12.8509009,21.1309267 L12.8479698,20.2004698 L12.8479698,20.2004698 Z M20.2004698,21.1082845 C20.372375,20.9736034 20.5378319,20.8287371 20.6942026,20.6713405 C20.8506466,20.513944 20.9944871,20.3476078 21.128069,20.1748233 L21.1309267,21.1053534 L20.2004698,21.1082845 L20.2004698,21.1082845 Z" id="Shape"></path>
                <path d="M33.9265776,12.1076638 C33.9249655,11.5855733 33.5697974,11.1335345 33.062875,11.0084526 L26.4673879,9.38114224 C26.306694,9.34157328 26.1367672,9.37645259 26.0046509,9.47610776 L24.4789741,10.6277845 C24.3995431,10.3463319 24.249181,10.0884009 24.0360216,9.87663362 C23.8228621,9.66471983 23.5628793,9.517875 23.280694,9.44027586 L24.4243836,7.90551293 C24.523306,7.77281034 24.5570862,7.60259052 24.5164914,7.44218966 L22.8485862,0.856814655 C22.7205733,0.35187069 22.2682414,0 21.7476897,0 L21.7440259,0 L12.1076638,0.02975 C11.5855733,0.031362069 11.1335345,0.386530172 11.0084526,0.893452586 L9.38114224,7.48893966 C9.3415,7.64956034 9.37637931,7.81956034 9.47610776,7.95167672 L10.6277845,9.47735345 C10.3463319,9.55678448 10.0884009,9.70714655 9.87663362,9.92030603 C9.66486638,10.1333922 9.5160431,10.3922026 9.43829741,10.6741681 L7.90551293,9.53194397 C7.77281034,9.43302155 7.60259052,9.39924138 7.44218966,9.43983621 L0.856814655,11.1077414 C0.350698276,11.2360474 -0.00168534483,11.6902845 1.76257494e-14,12.2123017 L0.02975,21.8486638 C0.031362069,22.3707543 0.386530172,22.8227931 0.893452586,22.947875 L7.48893966,24.5751853 C7.53246552,24.5858836 7.57657759,24.5911595 7.6205431,24.5911595 C7.73888362,24.5911595 7.85539224,24.5529095 7.95167672,24.4802198 L9.47786638,23.3281767 C9.64149138,23.904125 10.0975603,24.3574828 10.6745345,24.5175172 L9.53201724,26.0507414 C9.43309483,26.183444 9.39931466,26.3536638 9.43990948,26.5140647 L11.1078147,33.0994397 C11.2357543,33.6044569 11.6880862,33.9563276 12.2086379,33.9563276 L12.2123017,33.9563276 L21.8485905,33.9265776 C22.370681,33.9249655 22.8227198,33.5697974 22.9478017,33.062875 L24.5751121,26.4673879 C24.6147543,26.3067672 24.579875,26.1367672 24.4801466,26.0046509 L23.3281034,24.4784612 C23.9039784,24.3148362 24.3573362,23.858694 24.517444,23.2817931 L26.0507414,24.4243836 C26.1465862,24.4958276 26.2619957,24.5332716 26.3791638,24.5332716 C26.4242284,24.5332716 26.4695129,24.5277026 26.5140647,24.5164914 L33.0994397,22.8485862 C33.6056293,22.7203534 33.9580129,22.2661164 33.9563276,21.7440991 L33.9265776,12.1076638 L33.9265776,12.1076638 Z M12.075569,1.15673276 C12.0795991,1.14039224 12.094181,1.12888793 12.1109612,1.12888793 L21.7473966,1.09913793 C21.7617586,1.09979741 21.7788319,1.11042241 21.7829353,1.12676293 L23.3866509,7.45853017 L21.9557931,9.37865086 L20.435319,9.38334052 L20.4315819,8.17428879 C20.4306293,7.87136638 20.1847888,7.62640517 19.8820129,7.62640517 L19.8802543,7.62640517 C19.5767457,7.62735776 19.3314914,7.87415086 19.3323707,8.17765948 L19.3361078,9.38671121 L14.5731767,9.40143966 L14.5694397,8.19238793 C14.5684871,7.88946552 14.3226466,7.64450431 14.0198707,7.64450431 L14.0181121,7.64450431 C13.7146034,7.6454569 13.4693491,7.89225 13.4702284,8.19575862 L13.4739655,9.40481034 L11.9534914,9.4095 L10.5107629,7.49817241 L12.075569,1.15673276 L12.075569,1.15673276 Z M7.49824569,23.4453448 L1.15673276,21.8806853 C1.14039224,21.8766552 1.12888793,21.8620733 1.12888793,21.8452931 L1.09913793,12.2088578 C1.09906466,12.1920776 1.11042241,12.1774224 1.12676293,12.173319 L7.45853017,10.5696034 L9.37865086,12.0004612 L9.38334052,13.5209353 L8.17428879,13.5246724 C7.87078017,13.525625 7.62552586,13.7724181 7.62640517,14.0759267 C7.62735776,14.3788491 7.87319828,14.6238103 8.17597414,14.6238103 L8.17773276,14.6238103 L9.38678448,14.6200733 L9.40151293,19.3830043 L8.19246121,19.3867414 C7.88895259,19.387694 7.64369828,19.6344871 7.64457759,19.9379957 C7.64553017,20.2409181 7.89137069,20.4858793 8.19414655,20.4858793 L8.19590517,20.4858793 L9.40488362,20.4821422 L9.40957328,22.0026164 L7.49824569,23.4453448 L7.49824569,23.4453448 Z M21.8806853,32.7995216 C21.8766552,32.8158621 21.8620733,32.8273664 21.8452931,32.8273664 L12.208931,32.8571164 L12.2088578,32.8571164 C12.1920776,32.8571164 12.1774957,32.8457586 12.1733922,32.8294914 L10.5696767,26.4977241 L12.0005345,24.5776034 L13.5210086,24.5729138 L13.5247457,25.7819655 C13.5256983,26.0848879 13.7715388,26.3298491 14.0743147,26.3298491 L14.0760733,26.3298491 C14.3795819,26.3288966 14.6248362,26.0821034 14.6239569,25.7785948 L14.6202198,24.5695431 L19.3831509,24.5548147 L19.3868879,25.7638664 C19.3878405,26.0667888 19.633681,26.31175 19.9364569,26.31175 L19.9382155,26.31175 C20.2417241,26.3107974 20.4869784,26.0640043 20.4860991,25.7604957 L20.4823621,24.5515172 L22.0028362,24.5468276 L23.4455647,26.4580819 L21.8806853,32.7995216 L21.8806853,32.7995216 Z M22.8602371,23.4449784 L11.1360991,23.4811767 L11.134194,23.4811767 C10.7916293,23.4811767 10.512375,23.2030216 10.5113491,22.8602371 L10.4751509,11.1360991 C10.474125,10.7926552 10.7526466,10.512375 11.0960905,10.5113491 L22.8202284,10.4751509 L22.8221336,10.4751509 C23.1646983,10.4751509 23.4439526,10.753306 23.4449784,11.0960905 L23.4811767,22.8202284 C23.4821293,23.1635991 23.2036078,23.4438793 22.8602371,23.4449784 L22.8602371,23.4449784 Z M32.8294914,21.7830086 L26.4977241,23.3867241 L24.5776034,21.9558664 L24.5729138,20.4353922 L25.7819655,20.4316552 C26.0854741,20.4307026 26.3307284,20.1839095 26.3298491,19.8804009 C26.3288966,19.5774784 26.083056,19.3325172 25.7802802,19.3325172 L25.7785216,19.3325172 L24.5694698,19.3362543 L24.5547414,14.5733233 L25.7637931,14.5695862 C26.0673017,14.5686336 26.312556,14.3218405 26.3116767,14.0183319 C26.3107241,13.7154095 26.0648836,13.4704483 25.7621078,13.4704483 L25.7603491,13.4704483 L24.5512974,13.4741853 L24.5466078,11.9537112 L26.4579353,10.5109828 L32.7994483,12.0756422 C32.8157888,12.0796724 32.8272931,12.0942543 32.8272931,12.1110345 L32.8570431,21.7473966 C32.8571897,21.76425 32.8458319,21.7788319 32.8294914,21.7830086 L32.8294914,21.7830086 Z" id="Shape"></path>
            </g>
        </g>
    </g>
</svg>