<?xml version="1.0" encoding="UTF-8" standalone="no"?>
<svg width="26px" height="21px" viewBox="0 0 26 21" version="1.1" xmlns="http://www.w3.org/2000/svg" xmlns:xlink="http://www.w3.org/1999/xlink">
    <!-- Generator: Sketch 3.8.3 (29802) - http://www.bohemiancoding.com/sketch -->
    <title>Group</title>
    <desc>Created with Sketch.</desc>
    <defs></defs>
    <g id="Page-1" stroke="none" stroke-width="1" fill="none" fill-rule="evenodd">
        <g id="Artboard-1" transform="translate(-327.000000, -62.000000)" fill="#FFFFFF">
            <g id="Group" transform="translate(327.000000, 62.000000)">
                <path d="M25.4218305,11.0989375 L24.1658983,9.8520625 C23.6529492,9.3428125 22.8187458,9.3436875 22.3057966,9.8520625 L15.523322,16.585625 L14.5886441,19.9889375 L14.3599322,20.216 C14.1889492,20.38575 14.1885085,20.659625 14.3572881,20.8306875 L14.3550847,20.8394375 L14.3634576,20.83725 C14.4489492,20.9208125 14.56,20.96325 14.6714915,20.96325 C14.7843051,20.96325 14.8971186,20.920375 14.9830508,20.8350625 L15.2122034,20.6075625 L18.6397966,19.679625 L25.4218305,12.9460625 C25.9347797,12.4368125 25.9347797,11.6081875 25.4218305,11.0989375 L25.4218305,11.0989375 Z M16.5408475,16.813125 L21.0547119,12.3318125 L22.9245085,14.188125 L18.4106441,18.6694375 L16.5408475,16.813125 L16.5408475,16.813125 Z M16.1433559,17.65575 L17.562339,19.0645 L15.6110169,19.5925625 L16.1433559,17.65575 L16.1433559,17.65575 Z M24.7987119,12.3274375 L23.5476271,13.5695 L21.6778305,11.713625 L22.9289153,10.4715625 C23.0985763,10.303125 23.374,10.3035625 23.5432203,10.471125 L24.7991525,11.718 C24.9679322,11.8855625 24.9679322,12.1594375 24.7987119,12.3274375 L24.7987119,12.3274375 Z" id="Shape"></path>
                <path d="M12.779661,17.345125 L1.70938983,17.345125 C3.71359322,15.768375 8.23186441,12.1909375 10.5533559,10.1688125 L11.1795593,10.717875 C11.620678,11.109 12.2006102,11.3045625 12.7801017,11.3045625 C13.3587119,11.3045625 13.9377627,11.1094375 14.3775593,10.719625 L24.6779661,1.6900625 L24.6779661,8.5946875 C24.6779661,8.836625 24.8753898,9.0321875 25.1186441,9.0321875 C25.3618983,9.0321875 25.559322,8.836625 25.559322,8.5946875 L25.559322,0.7196875 C25.559322,0.7161875 25.5575593,0.7135625 25.5571186,0.7100625 C25.5562373,0.6615 25.5487458,0.6125 25.530678,0.56525 C25.5293559,0.5621875 25.5271525,0.56 25.5258305,0.5569375 C25.5209831,0.545125 25.5130508,0.5359375 25.5077627,0.525 C25.4896949,0.4895625 25.4681017,0.45675 25.441661,0.427875 C25.4302034,0.415625 25.4183051,0.405125 25.4055254,0.3941875 C25.3782034,0.370125 25.3482373,0.3504375 25.3156271,0.33425 C25.3010847,0.3268125 25.2878644,0.319375 25.2728814,0.3136875 C25.2244068,0.2953125 25.1732881,0.282625 25.1186441,0.282625 L0.440677966,0.282625 C0.386033898,0.282625 0.334915254,0.2953125 0.286,0.3136875 C0.270576271,0.319375 0.257355932,0.3268125 0.243254237,0.33425 C0.210644068,0.350875 0.180677966,0.3705625 0.153355932,0.3941875 C0.140576271,0.4055625 0.128677966,0.415625 0.117220339,0.427875 C0.090779661,0.45675 0.0696271186,0.489125 0.0511186441,0.525 C0.0458305085,0.536375 0.0378983051,0.5455625 0.0330508475,0.5569375 C0.0317288136,0.56 0.0295254237,0.5621875 0.0282033898,0.56525 C0.0105762712,0.6125 0.00308474576,0.6615 0.00220338983,0.7100625 C0.00176271186,0.7135625 0,0.716625 0,0.720125 L0,17.782625 C0,17.7839375 0.000881355932,17.7848125 0.000881355932,17.7865625 C0.0013220339,17.833375 0.00837288136,17.8801875 0.0242372881,17.926125 C0.026,17.931375 0.0299661017,17.9353125 0.0321694915,17.9405625 C0.0383389831,17.955875 0.0475932203,17.969 0.0550847458,17.9834375 C0.0718305085,18.015375 0.091220339,18.045125 0.115016949,18.071375 C0.127355932,18.0849375 0.139694915,18.09675 0.153355932,18.1085625 C0.180237288,18.13175 0.209322034,18.151 0.241050847,18.1671875 C0.256033898,18.1750625 0.269694915,18.183375 0.285559322,18.1895 C0.334474576,18.2074375 0.386033898,18.220125 0.440677966,18.220125 L12.779661,18.220125 C13.0229153,18.220125 13.220339,18.0245625 13.220339,17.782625 C13.220339,17.5406875 13.0229153,17.345125 12.779661,17.345125 L12.779661,17.345125 Z M0.881355932,16.879625 L0.881355932,1.6900625 L9.88749153,9.5851875 C7.43908475,11.7088125 2.6819661,15.4651875 0.881355932,16.879625 L0.881355932,16.879625 Z M23.9539322,1.157625 L13.7927797,10.065125 C13.2344407,10.560375 12.325322,10.560375 11.7647797,10.063375 L10.892678,9.2990625 C10.8900339,9.296 10.8895932,9.2925 10.8869492,9.289875 C10.8772542,9.2789375 10.8635932,9.2745625 10.8530169,9.2649375 L1.60538983,1.157625 L23.9539322,1.157625 L23.9539322,1.157625 Z" id="Shape"></path>
            </g>
        </g>
    </g>
</svg>