<?xml version="1.0" encoding="UTF-8" standalone="no"?>
<svg width="25px" height="25px" viewBox="0 0 25 25" version="1.1" xmlns="http://www.w3.org/2000/svg" xmlns:xlink="http://www.w3.org/1999/xlink">
    <!-- Generator: Sketch 3.8.3 (29802) - http://www.bohemiancoding.com/sketch -->
    <title>Group</title>
    <desc>Created with Sketch.</desc>
    <defs></defs>
    <g id="Page-1" stroke="none" stroke-width="1" fill="none" fill-rule="evenodd">
        <g id="Artboard-1" transform="translate(-373.000000, -73.000000)" fill="#FFFFFF">
            <g id="Group" transform="translate(373.000000, 73.000000)">
                <path d="M19.9125,24.7775 C18.8816667,24.7775 17.6366667,24.5191667 16.2683333,24.0033333 C13.2658333,22.8708333 10.0008333,20.6341667 7.0725,17.7058333 C4.14416667,14.7775 1.9075,11.5116667 0.775,8.50833333 C-0.255833333,5.77916667 -0.258333333,3.53916667 0.766666667,2.51416667 C0.915,2.36583333 1.06583333,2.2075 1.22083333,2.045 C2.15666667,1.06166667 3.23916667,-0.0558333333 4.615,0.005 C5.58166667,0.045 6.5175,0.645 7.4775,1.83666667 C10.3075,5.3575 9.03166667,6.6125 7.555,8.0675 L7.29333333,8.32583333 C7.05166667,8.5675 6.59416667,9.68583333 10.8433333,13.9341667 C12.2316667,15.3216667 13.4133333,16.3366667 14.3575,16.9508333 C14.9533333,17.3375 16.0166667,17.9208333 16.4525,17.485 L16.715,17.22 C18.1683333,15.745 19.4233333,14.4733333 22.9433333,17.3025 C24.1358333,18.2608333 24.735,19.1966667 24.775,20.1641667 C24.8325,21.5658333 23.7158333,22.6258333 22.7308333,23.5608333 C22.5691667,23.715 22.4108333,23.8641667 22.2641667,24.0108333 C21.7525,24.5216667 20.9391667,24.7775 19.9125,24.7775 L19.9125,24.7775 Z M4.51583333,0.835 C3.52083333,0.835 2.62083333,1.78166667 1.825,2.61833333 C1.66416667,2.78666667 1.50833333,2.95083333 1.35583333,3.10333333 C0.5925,3.86583333 0.670833333,5.8725 1.55416667,8.215 C2.64583333,11.1091667 4.815,14.2708333 7.66166667,17.1175 C10.5083333,19.9641667 13.6691667,22.1325 16.5625,23.2241667 C18.905,24.1083333 20.9116667,24.185 21.675,23.4208333 C21.8275,23.2691667 21.99,23.1141667 22.1566667,22.9558333 C23.0133333,22.1416667 23.9841667,21.22 23.9425,20.1966667 C23.9133333,19.4941667 23.4016667,18.7383333 22.4208333,17.9508333 C19.4875,15.5941667 18.6683333,16.4275 17.3083333,17.8041667 L17.0416667,18.0733333 C16.3941667,18.7241667 15.3383333,18.5816667 13.9033333,17.6483333 C12.9116667,17.0033333 11.6833333,15.9508333 10.2541667,14.5225 L10.2541667,14.5225 C6.72833333,10.9966667 5.6,8.84 6.70416667,7.735 L6.97,7.47166667 C8.35166667,6.11166667 9.185,5.29083333 6.8275,2.3575 C6.03916667,1.37833333 5.28333333,0.866666667 4.58083333,0.836666667 C4.55916667,0.835833333 4.53666667,0.835 4.51583333,0.835 L4.51583333,0.835 Z" id="Shape"></path>
                <g transform="translate(12.500000, 0.000000)" id="Shape">
                    <path d="M7.55833333,10.2416667 C7.50583333,10.2416667 7.45333333,10.2316667 7.40166667,10.2108333 C7.18833333,10.1241667 7.085,9.88166667 7.1725,9.66916667 C7.7025,8.3625 7.39916667,6.87333333 6.4025,5.87583333 C5.37833333,4.85166667 3.80416667,4.5675 2.48333333,5.16083333 C2.27583333,5.255 2.02666667,5.16333333 1.9325,4.95333333 C1.8375,4.74333333 1.93,4.49666667 2.14,4.4025 C3.77416667,3.6625 5.72333333,4.01833333 6.99166667,5.2875 C8.22583333,6.52166667 8.6,8.36416667 7.94416667,9.9825 C7.87916667,10.1425 7.7225,10.2416667 7.55833333,10.2416667 L7.55833333,10.2416667 Z"></path>
                    <path d="M11.2783333,11.7516667 C11.2258333,11.7516667 11.1733333,11.7416667 11.1216667,11.7208333 C10.9075,11.6341667 10.805,11.3916667 10.8925,11.1791667 C12.03,8.37333333 11.3825,5.1775 9.24166667,3.03666667 C7.04333333,0.838333333 3.6625,0.221666667 0.829166667,1.5025 C0.619166667,1.59416667 0.3725,1.50416667 0.2775,1.29416667 C0.183333333,1.08333333 0.275833333,0.836666667 0.485833333,0.741666667 C3.63333333,-0.68 7.38833333,0.00416666667 9.83083333,2.44666667 C12.2091667,4.825 12.9291667,8.375 11.6641667,11.4916667 C11.5991667,11.6533333 11.4425,11.7516667 11.2783333,11.7516667 L11.2783333,11.7516667 Z"></path>
                </g>
            </g>
        </g>
    </g>
</svg>