<?xml version="1.0" encoding="UTF-8" standalone="no"?>
<svg width="24px" height="25px" viewBox="0 0 24 25" version="1.1" xmlns="http://www.w3.org/2000/svg" xmlns:xlink="http://www.w3.org/1999/xlink">
    <!-- Generator: Sketch 3.8.3 (29802) - http://www.bohemiancoding.com/sketch -->
    <title>search_1_</title>
    <desc>Created with Sketch.</desc>
    <defs></defs>
    <g id="Page-1" stroke="none" stroke-width="1" fill="none" fill-rule="evenodd">
        <g id="Artboard-1" transform="translate(-279.000000, -300.000000)" fill="#3E70AD">
            <g id="search_1_" transform="translate(279.000000, 300.000000)">
                <path d="M15,0 C10.02975,0 6,4.07045455 6,9.09090909 C6,10.6257576 6.38025,12.0704545 7.04625,13.3393939 L0.789,19.6590909 L0.79425,19.6636364 C0.30525,20.1492424 0.00075,20.8219697 0.00075,21.569697 C0.00075,23.0462121 1.18575,24.2431818 2.6475,24.2431818 C3.38625,24.2431818 4.053,23.9356061 4.53375,23.4409091 L4.53225,23.4393939 L10.788,17.1212121 C12.04425,17.7962121 13.47675,18.1818182 15,18.1818182 C19.97025,18.1818182 24,14.1113636 24,9.09090909 C24,4.07045455 19.971,0 15,0 L15,0 Z M3.597,22.4939394 C3.3555,22.7469697 3.021,22.905303 2.6475,22.905303 C1.91625,22.905303 1.32375,22.3075758 1.32375,21.5689394 C1.32375,21.1916667 1.48125,20.8545455 1.731,20.6098485 L1.72425,20.6037879 L7.77375,14.4931818 C8.3025,15.2136364 8.9325,15.85 9.64425,16.3856061 L3.597,22.4939394 L3.597,22.4939394 Z M15,16.6674242 C10.8585,16.6674242 7.5,13.2742424 7.5,9.09166667 C7.5,4.90833333 10.8585,1.51590909 15,1.51590909 C19.14075,1.51590909 22.5,4.90833333 22.5,9.09166667 C22.5,13.2742424 19.14075,16.6674242 15,16.6674242 L15,16.6674242 Z" id="Shape"></path>
                <path d="M15,3.78787879 C12.09975,3.78787879 9.75,6.16212121 9.75,9.09090909 C9.75,9.3 9.918,9.46969697 10.125,9.46969697 C10.332,9.46969697 10.5,9.3 10.5,9.09090909 C10.5,6.58106061 12.5145,4.54545455 15,4.54545455 C15.20625,4.54545455 15.375,4.37575758 15.375,4.16666667 C15.375,3.95757576 15.20625,3.78787879 15,3.78787879 L15,3.78787879 Z" id="Shape"></path>
            </g>
        </g>
    </g>
</svg>