<?xml version="1.0" encoding="UTF-8" standalone="no"?>
<svg width="91px" height="91px" viewBox="0 0 91 91" version="1.1" xmlns="http://www.w3.org/2000/svg" xmlns:xlink="http://www.w3.org/1999/xlink">
    <!-- Generator: Sketch 3.8.3 (29802) - http://www.bohemiancoding.com/sketch -->
    <title>Group 4</title>
    <desc>Created with Sketch.</desc>
    <defs></defs>
    <g id="Page-1" stroke="none" stroke-width="1" fill="none" fill-rule="evenodd">
        <g id="-" transform="translate(-583.000000, -267.000000)">
            <g id="Group-4" transform="translate(583.000000, 267.000000)">
                <circle id="Oval-1" fill="#DBE9F4" cx="45.5" cy="45.5" r="45.5"></circle>
                <path d="M72.188,41.518 L69.06,40.916 C67.218,40.562 65.709,39.309 65.025,37.562 C64.339,35.817 64.592,33.872 65.702,32.359 L67.666,29.68 C67.958,29.283 67.915,28.731 67.566,28.382 L63.324,24.14 C62.985,23.801 62.453,23.75 62.056,24.019 L59.418,25.805 C57.866,26.857 55.913,27.036 54.194,26.287 C52.475,25.537 51.278,23.982 50.993,22.129 L50.488,18.847 C50.413,18.36 49.994,18 49.5,18 L43.5,18 C43.021,18 42.608,18.34 42.518,18.812 L41.741,22.852 C41.394,24.653 40.176,26.148 38.481,26.849 C36.787,27.553 34.868,27.356 33.35,26.328 L29.944,24.02 C29.547,23.752 29.015,23.802 28.676,24.141 L24.433,28.383 C24.084,28.732 24.042,29.283 24.333,29.682 L26.297,32.361 C27.406,33.873 27.659,35.818 26.974,37.564 C26.288,39.309 24.78,40.563 22.938,40.917 L19.81,41.519 C19.34,41.608 19,42.021 19,42.5 L19,48.5 C19,48.993 19.36,49.413 19.848,49.488 L23.131,49.993 C24.984,50.278 26.539,51.474 27.288,53.193 C28.038,54.913 27.858,56.866 26.806,58.419 L25.02,61.057 C24.751,61.453 24.802,61.986 25.141,62.325 L29.383,66.567 C29.732,66.915 30.282,66.96 30.681,66.667 L33.36,64.703 C34.872,63.594 36.817,63.338 38.562,64.026 C40.308,64.711 41.562,66.219 41.916,68.061 L42.518,71.189 C42.608,71.66 43.021,72 43.5,72 L49.5,72 C49.994,72 50.414,71.64 50.488,71.152 L50.843,68.843 C51.135,66.947 52.366,65.378 54.137,64.645 C55.908,63.915 57.888,64.15 59.434,65.285 L61.318,66.666 C61.717,66.959 62.268,66.914 62.616,66.566 L66.858,62.324 C67.197,61.985 67.248,61.453 66.979,61.056 L65.193,58.418 C64.141,56.865 63.961,54.912 64.711,53.193 C65.461,51.473 67.015,50.277 68.869,49.992 L72.151,49.487 C72.64,49.413 73,48.993 73,48.5 L73,42.5 C73,42.021 72.66,41.608 72.188,41.518 L72.188,41.518 Z M71,47.642 L68.565,48.017 C66.03,48.407 63.904,50.043 62.878,52.395 C61.853,54.746 62.099,57.417 63.538,59.541 L64.861,61.495 L61.809,64.547 L60.617,63.673 C58.502,62.122 55.795,61.798 53.371,62.799 C50.949,63.803 49.264,65.948 48.866,68.54 L48.642,70 L44.326,70 L43.88,67.684 C43.396,65.164 41.68,63.101 39.292,62.163 C36.907,61.226 34.245,61.574 32.177,63.089 L30.19,64.546 L27.138,61.494 L28.462,59.54 C29.9,57.417 30.147,54.745 29.121,52.394 C28.095,50.043 25.969,48.407 23.434,48.017 L21,47.642 L21,43.327 L23.317,42.882 C25.836,42.398 27.899,40.683 28.837,38.295 C29.774,35.907 29.428,33.247 27.911,31.178 L26.454,29.19 L29.506,26.138 L32.229,27.983 C34.306,29.39 36.93,29.658 39.247,28.696 C41.564,27.736 43.231,25.692 43.705,23.228 L44.326,20 L48.642,20 L49.017,22.435 C49.407,24.97 51.044,27.096 53.395,28.122 C55.746,29.148 58.417,28.9 60.541,27.463 L62.495,26.14 L65.547,29.192 L64.09,31.178 C62.573,33.246 62.227,35.907 63.165,38.295 C64.102,40.683 66.165,42.398 68.685,42.882 L71,43.326 L71,47.642 L71,47.642 Z" id="Shape" fill="#0F5FB4"></path>
                <path d="M46.5,35 C40.71,35 36,39.71 36,45.5 C36,51.29 40.71,56 46.5,56 C52.29,56 57,51.29 57,45.5 C57,39.71 52.29,35 46.5,35 L46.5,35 Z M46.5,54 C41.813,54 38,50.187 38,45.5 C38,40.813 41.813,37 46.5,37 C51.187,37 55,40.813 55,45.5 C55,50.187 51.187,54 46.5,54 L46.5,54 Z" id="Shape" fill="#0F5FB4"></path>
                <path d="M46.5,40 C43.467,40 41,42.468 41,45.5 C41,48.532 43.467,51 46.5,51 C49.533,51 52,48.532 52,45.5 C52,42.468 49.533,40 46.5,40 L46.5,40 Z M46.5,49 C44.57,49 43,47.43 43,45.5 C43,43.57 44.57,42 46.5,42 C48.43,42 50,43.57 50,45.5 C50,47.43 48.43,49 46.5,49 L46.5,49 Z" id="Shape" fill="#0F5FB4"></path>
            </g>
        </g>
    </g>
</svg>